<?xml version="1.0" encoding="UTF-8"?>
<svg xmlns="http://www.w3.org/2000/svg" id="Layer_1" data-name="Layer 1" viewBox="0 0 900 600">
  <defs>
    <style>
      .cls-1 {
        fill: #213656;
      }

      .cls-2 {
        fill: #706448;
      }

      .cls-3 {
        fill: #706448;
      }
    </style>
  </defs>
  <path class="cls-2" d="M766.05,258.56c-.68-26.23,1.05-49.17.46-74.83-.04-1.91-.27-3.89-.13-5.72.83-11.18-1.07-19.65-.16-33.51.27-4.11.14-9.09-4.75-10.65-1.22-.39-3.38-2.17-4.61-2.63-4-.9-9.56-.29-13.8-.31l-49.61-.19h-5.43s-31.89-.08-31.89-.08l-6.59-.11-20.52.15c-2.82.02-5.55.31-8.49.1-9.83-.7-14.56,1.75-22.48.96l-8.16-.8c-7.62-.75-15.08-.09-22.69.2l-18.89.72-16.07-.14h-24.41c-1.33.26-2.66.51-3.99.8-.84.73-1.58,1.62-2.53,2.19-.29,1.19-.33,2.47-.11,3.29,1.42,5.47,10.24,7.39,13.85,7.22,6.5-.32,12.98-1.68,19.55-1.72l7.96-.05,7.42.98c3.43.45,6.43-.11,10.02.2,1.94.17,3.79-.76,5.58-1.17,2.86-.65,6.82.58,9.97.37,8.08-.55,15.73-.48,23.83.25,6.94.63,13.48-.85,20.42-.77l34.77.39,23.89.03,14.31-.1,23.87-.24c8.09-.08,19.05.64,26.92,1.15l11.3,6.28.22,10.04-.3,23.63.4,9.92.15,4.87.2,15.86c.06,4.89.17,9.62-.26,14.47-.89,9.99.43,11.73-.07,23.61l-.54,12.97c-.1,2.38.21,5.56.49,7.71l-6.16,6.8c-1.01,1.02-3.39,2.43-4.85,3.18l-34.02-.5-13.28-.45-17.44-16.37c-10.36-9.73-5.35-1.21-16.81-13.82-5.17-5.69-10.78-10.24-18.15-12.95l-6.97,3.5-6.36-4.33c-4.61-3.14-7.94-7.77-11.56-12.01l-6.64-7.77c-10.95-12.81-23.75-18.57-31.52-26.37l-5.18-5.2c-3.92-3.93-9.83-10.51-14.39-7.7-2.49,1.53-4.85,2.39-7.11,3.95l-7.99,5.52c-.05.12-.12.23-.24.32-2.25,1.64-4.36,3.48-6.83,4.8-2.22,1.19-4.75,1.95-7.17,1.17-.1.17-.21.27-.34.22-.33-.12-1.42-.56-1.77-.78l-7.88-4.99c-4.72-2.99-9.66-6.29-13.61-10.07-3.47-3.32-6.69-3.95-10.9-6.02-9.28-4.56-18.96-16.56-27.53-19.12-5.95-1.77-10.36-5.36-14.84-9.68-1.28-1.24-4.63-3.23-4.63-5.21v-4.74c-.08-.13-.11-.29-.06-.47.03-.12.03-.25.04-.37v-.09s0-1.35,0-1.35c0-.31-.02-.62,0-.93,0-.03,0-.07,0-.1l.04-5.68-.1-5.93-.03-8.12v-.77s4.75-.3,4.75-.3l11.18.24s.03,0,.05,0c.77-.1,1.69-.19,2.33-.68.24-.19.45-.41.64-.65,0-2.33-.02-7.06-.02-10.02,0-.06,0-.12,0-.17,0-.21,0-.4,0-.58-.04-.24-.1-.48-.19-.72,0,0,0,0,0,0-.01-.02-.02-.05-.03-.07-.03-.06-.06-.12-.1-.19-.06-.1-.12-.2-.19-.3,0-.01-.06-.09-.09-.12-.03-.03-.08-.1-.09-.11-.03-.04-.07-.08-.11-.11-.26-.05-.53-.1-.79-.15-4.33,0-16.13-.2-17.2-.39,0-.4-.02-.79-.04-1.19v-.29s0-.08-.03-.11c-.07-1.01-.16-2.03-.23-3.04.08-.67.16-1.34.22-2.02-.01-.36-.02-.71,0-1.07.03-.43.03-.84.02-1.27,0-.21,0-.42.01-.64-.01-.03-.02-.07-.04-.1l-.13-8.97s-.01-.32-.02-.59c-.17-.2-.36-.4-.52-.61-1.92,0-8.32.03-11.51.05-.47.08-.92.22-1.35.39-.03.05-.04.1-.08.15-.22.26-.2.68-.26,1-.03.19-.06,1.14-.11,1.33l.33,10.91-.23,6.42-17.6.07s-.11,0-.15,0c-.35.04-.56.09-.8.21-.11.16-.22.32-.33.48-.01.02-.03.04-.04.06l-.04,7.84c.03.12.05.25.03.39-.02.11-.02.23-.03.35v1.57c.04.51.11,1.01.21,1.49.07.33.16.66.26.98.2.11.41.21.63.29.37.03.74.07,1.12.11,2.35.03,6.16.06,9.56.08.15-.02.29-.02.44-.05,1.52-.25,3.07,0,4.6.02.11,0,.2.02.29.06,1.19,0,1.93,0,1.93,0l.27,9.43-.27,6.4v.73c.16,1,.23,1.98.13,3.01-.04.44-.09.89-.13,1.33v10.48c0,2.67-2.96,5.73-4.24,7.94-1.26,2.19-2.85,3.46-4.59,4.99l-5.45,4.77c-1.53,1.34-3.06,4.15-4.79,5.24-6.69,4.24-10.94,8.68-17.11,13.54-7.36,5.8-14.8,10.93-21.47,17.51-2.34,2.31-4.99,4.43-7.49,6.28-3.96-4.6-7.7-4.53-13.9-8.19-4.41-2.6-9.07-7.95-15-7.02-7.56,1.18-14.96,12.6-22.44,15.99-3.91,1.77-7.82,3.41-10.86,6.34l-8.35,8.05c-5.79,5.58-11.69,10-19.1,13.92-4.1-1.87-7.49-4.15-11.12-6.79l-7.78-5.67-5.65,2.52-8.44,4.6s-9.84,8.75-10.08,8.96c-4.52,4.22-9.18,8.09-14.32,11.51-4.98,3.31-8.93,7.19-13.4,11.17-8.51,7.58-16.23,15.96-22.04,25.42l-14.13.21c-3.27.05-2.47-.5-5.81-.23-6.03.48-10.25.32-16.26.03-5.42-.27-10.87-.05-16.06-1.14l-4.88-5.43c-.11-7.07,1.19-14.28,1.54-21.51.22-4.47,1.14-8.89,1.08-13.26l-1.62-13.25-.29-6.97.96-12.74-.31-6.85c-.09-1.93.3-4.2.35-6.26l.31-12.69.17-11.29-.29-8.05-.43-10.23,8.08-9.48,18.69.34,117.55.11,7.93-.08h47.29s5.55-.04,5.55-.04l12.06-.19,24.15-.2,10.08-.15c.08,0,.16-.01.24-.02,2.3-1.04,3.78-3.16,5.69-4.79.11-.36.22-.73.31-1.1-.01-.96-.24-1.95-.67-2.94-.63-.83-1.49-1.57-2.24-2.16-.72-.57-1.48-1.08-2.26-1.57-.64-.13-1.32-.2-2.02-.17l-30.34,1.03c-2.8.1-5.6-.92-8.31-.93h-19.61c-7.88,0-14.89,0-22.72.47-22.74,1.36-45.11.38-67.92-.56-7.96-.33-14.94-.23-22.71.6-8.05.86-17.58,0-25.78-.23l-26.37-.89c-4.65-.13-4.66.92-9.35.58l-10.58-.76c-2.53-.18-4.58.17-7.18-.13-1.71-.2-5.25-.51-6.45.69-3.73,3.75-3.76,9-4.1,13.96-.56,8.06-.52,17.53-.22,25.66.08,2.16.15,4.07.03,6.15l-.83,15.03c-.27,4.83-.59,8.83.19,13.78,1.39,8.86.62,17.91,1.17,27.03.07,1.09.07,3.52-.06,4.64-1.3,11.38-.84,22.69-1.11,34.2-.16,6.71-1.74,13.33-.27,19.72.19.82,1.17,2.71,1.78,2.37,0,0,3.71,1.16,4.1,1.18l10.56.5c.9.04,13.01-.35,15.76-.41l5.98-.21c6.68-.16,10.11.67,16.85.98l8.88.4c4.96.22,9.52-.21,14.38-1.14l10.61-2.03c2.74-.52,5.84-1.76,8.62-2.71.24-4.89.23-9.85.95-14.09,2.7-5.18,6.65-7.82,8.42-14.27,1.23-3.82,8.19-10.95,20.1-19.73,1.81-1.33,4.18-2.41,5.31-4.35,7.47,5.78,2.77.02,7.26,6.59,9.51,13.91,1.29,8.96,2.38,19.8.08.84.55,2.4,1.06,2.87.51.47,2.3.32,2.9-.04l8.37-5.12c7.2-4.4,6.42-8.77,10.43-9.03,3.94-.26,7.75-.78,10.16-3.76l4.18-5.18c3.93-.86,7.12-3.13,9.69-6.38l5.75-7.26c1.97-2.49,4.87-4.73,7.08-7.15,2.82-3.09,11.3-9.78,14.35-6.66l4.1,4.19,6.37-2.37c1.55,2.64,3.35,7.67,2.23,10.91l-5.99,17.51c-.29.84.93,2.79,1.75,2.98.7.16,1.94-1.45,2.65-1.38,2.29.24,5.6-.62,7.97-2.3l-3.12,8.31c-1.66,4.42-6,10.55-2.76,15,.81,1.11,2.49,2.91,3.55,2.63l7.06-1.9c1.29-.35,3.61-2.2,4.9-3.08,3.6-2.46,5.91-6.78,7.95-10.61,1.75-3.29,3.89-5.89,6.21-8.8,3.24-4.06,3.44-9.67,4.62-14.57l1.87-7.75,2.16-.3c1.56-.22.17-4.1,1.11-4.56l2.58-1.25,12.94-8.95c2.4-2.8,1.26-7.73,3.77-10.37,2.16-2.27,2.88-4.36,2.99-7.26.08-2.18,2.43-6.09,4.36-6.72,2.88-.93,4.84-1.64,5.96-4.82,5.6-.77,8.89-4.29,13.36-8.4,2.05-1.88,4.93-3.02,7-4.52,1.96-1.42,2.71-2.67,5.54-2.36,7.13.79,4.7,1.74,13.38,6.79,1.69.98.05,5.68.99,7.29.84,1.44,1.43,3.22,1.27,4.8-.11,1.08-2.8,1.42-3.63,2.22-1.33,2.78-3.53,6.56-4.27,9.28l-2.41,8.95c-.84,3.1.42,6.6,1.47,10.08.59,1.95,3.97,1.51,5.44.04l7.5-7.47c5.37-5.35,8.8-11.84,15.3-16.06l8.55.41c1.56.09,3.95-2.77,6.01-1.39,3.19,2.13,4.07,5.73,5.01,9.2,2.24,8.27-.28,4.05.85,13.47l-4.67,6.85c-.45.66-.17,3.09.52,3.48l4.6,2.59-3.57,14.89c-1.61,6.72-8.5,7.57-6.75,11.65.41.95,2.99,1.81,4.07,1.37,8.13-3.38,14.18-8.97,19.6-15.59l6.82-8.34c1.23-1.5.93-3.35.23-5.79l4.79-.69c3.75-.54,5.94-3.39,7.86-6.31,3.03-4.62,7.15-7.2,11.33-10.44,3.82-2.97,7.27-7.46,12.52-7.91l5.41,2.67c5.74,2.83,6.18,14.32,5.76,20.21-.2,2.82.45,7.74,3.87,8.43,4.71.94,5.9.09,11.96.57,2.13.17,6.19-2.51,8.16.64-.55,6.32-1.78,12.97-4.05,19.14-1.28,3.49-.62,10,3.35,11.8,4.21,1.9,8.66-1.94,11.43-4.38,1.56-1.37,4.06,1.36,4.25,2.82.86,6.66,7.83.69,11.05,6.14,1.55,2.63,4.24,3.5,7.38,3.22,2.14-.19,5.86,1.41,5.68,3.97-.36,5.05-2.09,9.77-3.45,14.57,1.46,4.76,9.68,7.29,14.85,6.96,3.31-.21,6.62-.39,9.76-.41l20.11-.17,21.17-.13c6.53-.04,13.35.9,19.68-.39,3.87-.79,10.06-1.39,14.07-1.22l14.82.66c2.56.11,5.62-.62,7.97-.71,3.2-.12,5.36-.5,7.79-2.35,6.94-5.29,1.92-7.56,3.55-17.4.92-5.58.03-10.32-.12-15.82ZM273.67,245.61c-.69-.45-1.53-2.2-1.74-3.12l4.48-.63c.16-.02.81.6.72.74l-.9,1.44c-.4.63-1.95,1.98-2.57,1.58ZM277.41,250.99c-.13.13-.33.21-.51.21h-1.33c-.2,0-.37-.08-.51-.21-.14-.13-.2-.32-.21-.51,0-.18.09-.39.21-.51s.33-.21.51-.21h1.33c.2,0,.37.08.51.21.14.13.2.32.21.51,0,.18-.09.39-.21.51ZM283.76,247.38c-.13.2-.34.33-.59.34-.1,0-.2-.02-.29-.06-.21.06-.42.11-.63.17-.22.07-.44.14-.66.23-.06.02-.11.04-.17.07-.02,0-.02,0-.03,0,0,0,0,0-.03.01-.11.05-.23.1-.34.16-.36.18-.76.09-.99-.26-.2-.31-.08-.82.26-.99.32-.16.64-.34.94-.54.07-.05.14-.1.21-.15,0,0,0,0-.02.01,0,0,0,0,0,0,.03-.03.07-.05.1-.08.12-.11.24-.22.35-.34.03-.03.06-.06.08-.09,0,0,.02-.02.03-.04.01-.02.03-.03.03-.04.02-.03.05-.07.07-.1.04-.06.08-.13.11-.2.02-.04.04-.07.06-.11,0,0,0,0,0-.01.02-.07.05-.14.07-.21.02-.08.05-.17.06-.25,0-.02,0-.05.01-.07h1.57c.08.38.11.76.06,1.15-.02.14-.05.27-.07.4.04.06.08.13.11.21.1.3-.07.64-.33.8ZM312.67,226.74l-4.55,4.83c-4.46,4.74.89-9.21,4.6-7.42.6.29.41,2.09-.06,2.58ZM343.19,209.23c-.23.14-.49.12-.73,0-.46-.23-.91-.46-1.37-.68-.17-.08-.28-.26-.33-.43-.06-.19-.02-.39.07-.56.05-.09.14-.17.23-.23.08-.15.26-.28.43-.33.17-.05.41-.03.56.07.16.1.32.2.49.28.12.06.25.12.36.19.19.11.35.25.47.44.06.09.1.19.13.29.03.11.04.23.05.34,0,.25-.14.5-.36.62ZM358.59,214.56l-5.74-6.03c-1.15-1.2-.89-4.78-.17-6.96,4.13,3.55,6.24,7.65,8.57,12.45-.6.41-2.21.77-2.66.54ZM362.22,232.5c-.5-.21-.6-1.34-.53-1.83l3.37,1.73c-1.11.18-2.35.31-2.85.1ZM366.86,252.7c0,.93-1.45.93-1.45,0v-.33c0-.93,1.45-.93,1.45,0v.33ZM373.16,246.32c-.47.55-1.84,1.32-2.44,1.21-.73-.13-1.11-2.24-.59-2.83l2.86-3.24c2,1.13,1.64,3.12.17,4.85ZM376.85,225.02c-.06.49-1.4,2.04-1.82,1.88l-2.21-.83c-2.41-.9-4.55-1.05-6.89-.22l-1.84.65c-2.91,1.03,1.86-7.61,4.43-8.69l1.27,4.37c4.73.57,1.62-6.87,7.81-3.59l-.75,6.42ZM393.44,205.88c-.97,1.61-1.9,1.82-3.93,1.99-1.87.16-3.35-1.4-4.38-2.76-.24-.31,1.01-1.04,1.25-.73.22.29,1.19.74,1.38.87.12.08.25.15.37.21.3,0,.61,0,.91-.02.15,0,.31-.02.46-.04.03,0,.06,0,.1-.01,0,0,0,0,.02,0,.07-.01.14-.02.21-.04.31-.06.62-.14.91-.25.02,0,.08-.03.1-.04.06-.03.12-.06.18-.09.15-.08.3-.17.45-.26.12-.08.27-.1.41-.09.27-.34,2.04.46,1.55,1.26ZM468.56,164.81l.94.03,1,.03,2.12,1.13s.09.06.13.1l1.1,1.02-2.16-.2-2.65-.25s-.06-.02-.09-.04c-.28-.19-.56-1.08-.55-1.54,0-.17.05-.28.15-.28ZM468.92,195.45c-.88-.17-4.16-.13-3.76-.73l2.17-3.27s3.41,4.35,1.59,3.99ZM479.23,175.34c-.13.02-.26.03-.38.05-.24.07-.46.19-.64.37-.07.07-.15.15-.22.22-.15.07-.27.16-.32.28-.03.08-.07.16-.1.25-.03.06-.08.1-.1.16-.03.06-.02.14-.04.2-1.57,3.66-4.22,6.08-2.48,6.39,1.38.25,2.97.18,3.06.86.08.68-.77,2.25-1.32,2.65-.56.4-1.77-.77-2.21-1.4l-.87-1.24c-.82-1.17-2.73,3.41-3.96,1.97l-1.77-2.07c1.42-1.04,4.08-1.73,5.79-3.08-.22-.9-.26-1.82-.06-2.73.09-.42.25-.83.44-1.22-.27-.06-.51-.07-.65.03l-2.96,2.05c-1.6-4.63,2.05-3.21,3.31-7.16.59-.16,1.17-.32,1.76-.48l4.04,3.93c-.1-.02-.19-.04-.29-.04ZM486.11,183.19c-.06.34-.38.61-.7.7-.37.1-.7-.02-.98-.26-.32-.27-.61-.58-.9-.89-.14-.15-.27-.29-.41-.43-.07-.07-.14-.13-.21-.2-.03-.03-.07-.06-.11-.09,0,0-.01,0-.02-.01-.02-.02-.04-.03-.05-.04-.04-.03-.08-.05-.11-.07-.06-.04-.12-.06-.18-.1-.04-.01-.07-.02-.11-.03-.03,0-.06-.01-.09-.02-.08,0-.16,0-.24,0-.14.05-.13.03-.09.01-.01,0-.03,0-.04,0-.12.03-.24.06-.35.11-.02,0-.04.02-.06.02-.1.04-.08.03.05-.02-.06,0-.14.07-.2.09-.51.25-1.06.12-1.38-.36-.28-.43-.11-1.14.36-1.38.17-.08.34-.16.52-.23.08-.19.2-.36.39-.46,1.22-.6,2.71-.84,3.85.05,1.11.86,1.29,2.3,1.04,3.59ZM511.15,234.94c0,.2-.08.37-.21.51-.13.14-.32.2-.51.21-.18,0-.39-.09-.51-.21-.13-.13-.21-.33-.21-.51v-1.33c0-.2.08-.37.21-.51.13-.14.32-.2.51-.21.18,0,.39.09.51.21s.21.33.21.51v1.33ZM516.03,222.24l-3.61,3.5c-.91-.5-1.96-3.18-1.43-4.01,1.99-1.09,3.49-2.26,4.77-4.17.55.64,1.19,3.78.26,4.67ZM516.97,206.71c-4.36,4.62.04,7.89-5.21,7.68l-.25-8.96c-.02-.84-.97-2.78-.55-3.42.41-.64,1.94-1.25,2.75-1.04,1.03.27,3.04,1.31,3.43,2.09.45.88.5,2.94-.17,3.66ZM520.7,214.59c-.13.14-.32.2-.51.21-.1,0-.19-.02-.28-.06-.09-.03-.17-.08-.23-.15-.11-.11-.17-.27-.19-.43,0,0,0,.01,0,.02,0-.04-.02-.08-.03-.12,0-.02-.02-.03-.03-.05-.02-.02-.04-.04-.06-.06-.02-.01-.03-.02-.05-.03-.04-.01-.08-.03-.12-.03,0,0,.02,0,.02,0-.16-.02-.31-.08-.43-.19-.14-.13-.2-.32-.21-.51,0-.1.02-.19.06-.28.03-.09.08-.17.15-.23.07-.07.14-.12.23-.15.09-.05.18-.07.28-.06.06,0,.12.01.18.02.06,0,.12.01.18.03.11.03.22.08.33.13.06.03.11.06.16.09.09.07.19.14.28.22.3.3.49.7.49,1.12,0,.2-.08.37-.21.51ZM523.59,204.31l-2.2.62c-.44.12-.89-.14-1-.59l-.71-2.97c-.18-.75.69-1.3,1.29-.81l2.91,2.35c.51.41.34,1.22-.29,1.4ZM529.53,212.12l-1.68,2.29h-1.95c-.73-1.92-.01-3.22,1.62-4.56l1.3-1.07c.41-.34,1.89.61,1.78,1.12-.12.52-.62,1.59-1.07,2.21ZM582.01,219.69c-.12.13-.48.4-.53.48-.12.23-.36.38-.6.46-.24.08-1.2-.47-1.24-.7-.04-.24-.06-.48-.07-.72-.28-.34-.5-.69-.5-.89,0-.13.21-.14.48-.09-.11-.26-.2-.52-.23-.81-.08-.83.42-1.6,1.04-2.11.36-.29.79-.38,1.22-.16.19.1.12,2.14.02,2.67,0,0,0,0,0,0,.01.02.03.03.04.05.12.14.24.27.37.4.4.4.37,1.02,0,1.42ZM581.64,207.39c-.24.15-.52.26-.88.26-.85,0-1.37-.52-1.55-1.15-1.24-.49-2.15-2.6-.66-3.85.18.02.32.15.43.36.19-.07.4-.13.64-.13.99,0,1.51.7,1.61,1.46.28.08,1.21.13,1.59.13,2.2,0-.9,3.21-1.18,2.92ZM587.65,212.65l-3.53-3.65c.98,0,2.86.05,3.66.12,1.07.1.65,1.79-.13,3.53ZM598.69,223.22c-.31.2-.82.08-.99-.26-.11-.22-.24-.43-.38-.62,0-.01,0,0,0-.01,0,0,0,0-.02-.02-.03-.04-.07-.08-.11-.12-.07-.08-.15-.16-.22-.23-.06-.05-.12-.11-.18-.16-.02-.01-.08-.06-.09-.07-.03-.02-.07-.05-.1-.07-.09-.05-.17-.11-.26-.15-.05-.02-.1-.05-.15-.07,0,0,0,0-.01,0-.19-.07-.38-.13-.58-.16,0,0-.07,0-.1-.01-.03,0-.06,0-.07,0-.1,0-.21-.01-.31,0-.11,0-.21.01-.31.02-.02,0-.02,0-.02,0,0,0,0,0,0,0-.05.01-.11.02-.16.03-.03,0-.05.02-.08.02-.07.06-.13.13-.2.19-1.37,1.06-3.19,1.42-4.89,1.42-.55,0-1.01-.46-1.01-1.01s.46-1,1.01-1.01c.26,0,.52,0,.78-.03.13,0,.25-.02.38-.04-.22.03.15-.02.19-.03.43-.08.28-1.45.31-1.47.12-.11.22-.22.33-.34.03-.04.09-.11.11-.14.05-.07-.22-.65-.36-.91-.55-1.02.29-3.29,1.36-2.87,1.33.53,3.56,3.27,3.58,3.28.04.01,1.17.45,1.17,1.05,0,.29,1.21,1.93,1.67,2.83.18.36.09.77-.26.99ZM603.85,253.52c-.46-.05-1.85-2.04-1.74-2.91.06-.42,1.32-1.26,1.74-1.19.42.07,1.06.57,1.21.97.19.5-.3,1.32-1.21,3.13ZM611.42,240.25c-.51.97-4.17,1.54-5.39-.28-.55-.83-3.4-1.54-2.09-3.16l5.11,1.3,1.98.22c.44.05.59,1.53.38,1.92ZM616.48,254.57c-.06.03-.13.03-.2.05-.02,0-.03.02-.05.03-.24.1-.51.12-.77.06-.02,0-.03-.01-.04-.02-.13-.03-.25-.08-.37-.14-.12-.06-.22-.15-.32-.23-.1-.09-.19-.21-.26-.32-.01-.02-.99-1.3-.95-1.38.18-.33,1.71.1,1.8.15.02,0,.03,0,.05,0,.23-.02.45.04.68.03,0,0,.68-.23.78-.22.15-.06.31-.07.46-.04.17.04.34.18.43.33.02.03.01.06.03.08.44.46-.33,1.63-1.26,1.62ZM623.45,251.62s-3.18-.57-3.39-1.23c-.3-.12-.69-1.24-.95-1.4-.6.07-1.09.99-1.66.8-.48-.16-.79-.6-.72-1.1.02-.12-.75-4.31-1.16-7.61.15-.07.29-.14.39-.26l1.36-1.59c1.11.54,2.16,1.19,3.13,1.97,1.61,3.12,3.37,6.72,3.55,7.05.28.53-.53,3.37-.53,3.37ZM648.13,254.48l-.09,2.13c-1.2.05-2.1-1.36-2.25-2.72.78.2,1.56.39,2.34.59ZM646.06,265.25c-.52.27-1.05.5-1.55.69-.25.09-.5.17-.73.23-.12.03-.23.06-.35.08-.79.17-1.44.13-1.8-.21.79-1.39-4.43-4.46-4.11-5.38.03-.1.07-.2.1-.31.06-.2.12-.41.16-.62.02-.1.04-.21.06-.32.06-.32.1-.66.14-1.03l.07-.74.07-.74c0-.06.05-.12.11-.16.12-.08.33-.13.56-.15,0,0,.01,0,.02,0,.34-.03,6.44,2.11,6.57,2.14,0,.49-.01,1.12.06,1.67,0,.07.02.14.03.2.03.16.06.3.11.43.09.26.21.47.39.57.09.05.19.09.31.12s.24.05.37.05c.39.02.86-.03,1.42-.13.61-.1,1.32-.25,2.11-.4.3.57-.55,1.58-1.83,2.54-.06.04-.11.08-.17.13-.64.47-1.37.92-2.12,1.31ZM649.43,269.39s-.04,0-.05,0c-.17.13-.34.26-.51.37-.16.11-.37.11-.56.07-.18-.04-.33-.18-.43-.33-.1-.15-.12-.38-.07-.56.05-.19.18-.33.33-.43.06-.04.12-.08.18-.13-.01-.1,0-.2.02-.29.04-.17.18-.34.33-.43.15-.08.39-.14.56-.07.14.05.28.08.42.12.02.06.04.11.07.16.02.03.05.06.07.09.02,0,.04,0,.05,0,.2,0,.37.08.51.21.09.08.14.19.17.3,0,0,.01,0,.02,0,.06.03.12.06.18.09-.05.11-.1.22-.11.35-.04.18-.02.35.02.53-.17-.03-.33-.07-.5-.11-.09.04-.19.07-.29.07-.13,0-.27,0-.4-.02ZM654.89,275.91c-.29.16-.55.36-.79.59l-4.03-2.6s.05-.08.07-.12c.09-.1.18-.2.29-.28.09-.06.18-.11.27-.16.08-.03.17-.05.25-.07.08,0,.16,0,.23,0,0,0,.01,0,.02,0,.37.1.79.05,1.11-.15.3-.18.59-.52.66-.86.04-.19.06-.39.03-.58.39.24,1.56,2.44,2.25,4.11-.12.03-.25.06-.37.12ZM659.87,274.53c-.36.12-.69-.11-.84-.42,0,0,0,0-.03-.03,0-.01-.02-.03-.03-.04-.06-.06-.06-.08-.05-.06-.08-.1-.17-.19-.24-.29-.07-.11-.12-.23-.15-.35-.09,0-.17-.03-.26-.04-.03-.07-.07-.13-.1-.2-.12-.3-.2-.61-.27-.93-.01-.13,0-.27,0-.4.11.03.21.06.32.08.09.02.2.02.29.05,0,0,0,0,0,0h0c-.07,0-.16-.05,0,0,.04,0,.09,0,.13.01.19.02.38.03.57.03.23,0,.43.11.57.28.15.19.17.4.13.63,0,0,0,0,0,0,0,.03,0,.05,0,.08h0s.01.03.02.04c.18.21.34.42.43.69.14.38-.15.78-.5.89ZM660.13,266.8s-.05.01-.08.02c-.02.1-.04.2-.09.29-.12.26-.34.47-.57.62-.46.3-1.07.36-1.59.23-.49-.12-.88-.4-1.23-.73-.09-.05-.19-.09-.27-.15-.28-.19-.54-.42-.74-.69-.06,0-.12-.02-.02-.01-.09,0-.99-.34-1-.74,0-.18.23-2.74.23-2.74.57-.01,1.34.36,2.13,1.02.12.07.23.14.34.23.21.16.4.36.6.53.01,0,.02.01.03.02.19-.03.38-.06.44-.08.07-.02.13-.04.2-.07.03,0,.08-.03.11-.05.21-.11.46-.48.51-.51.02-.02.54-.5.62-.6.05-.05.18-.21.2-.24.02-.03.8-.32.97-.23.16.08.29.26.33.43l-1.11,3.44ZM668.56,280.84c-.86-.09-2.12.5-1.95.93-1.34-.88-2.1-1.62-2.69-2.44-.03-.03-.06-.05-.09-.09-.06-.08-.1-.17-.15-.26-.2-.31-.4-.87-.32-.81-.07-.28-.12-.56-.14-.84-.06-.56.5-.98,1.01-1.01.58-.03.95.48,1.01,1.01,0,.02,0,.04,0,.05.01.06.02.11.03.17.03.12.06.23.1.35.02.03.03.06.05.09.03.04.05.09.08.13.06.06.11.11.17.17.02.01.03.02.05.04.08.05.16.09.24.13.03.01.07.03.1.04.2.07.41.11.62.15.05,0,.1.02.14.02.1.01.19.02.29.03.48.05.96.08,1.45.13.56.06.98.41,1.01,1.01.02.5-.48,1.06-1.01,1.01Z"></path>
  <path class="cls-3" d="M357.63,203.62c.1.15.12.38.07.56"></path>
  <g>
    <path class="cls-1" d="M58.14,417.89l-.83-30.11h8.15c4.28,21.96,11.6,27.76,24.17,27.76,9.94,0,15.88-5.11,15.88-13.95s-4.42-14.64-19.89-20.72c-17.82-7.04-27.49-13.95-27.49-30.25s12.15-26.38,33.29-26.38c10.36,0,20.86,3.18,28.31,8.29l.97,26.8-8.42.14c-3.32-17.68-9.94-25.69-22.65-25.69-7.87,0-12.71,4.83-12.71,11.74s2.07,12.29,18.92,18.65c15.88,6.08,28.31,14.09,28.31,30.94s-12.84,29.97-35.5,29.97c-13.12,0-23.2-3.04-30.52-7.18Z"></path>
    <path class="cls-1" d="M132.97,370.18c0-24.97,16.24-45.94,43.63-45.94s41.33,17.57,41.33,42.66-15.76,46.18-43.27,46.18-41.69-17.82-41.69-42.91ZM199.52,370.67c0-20-8-37.7-24.24-37.7-13.82,0-23.76,12.24-23.76,34.18s9.94,37.21,24.36,37.21,23.64-13.94,23.64-33.69Z"></path>
    <path class="cls-1" d="M223.64,404.24l8.61-1.58c2.55-.48,3.15-.73,3.15-29.09v-9.7c0-28.36-.61-28.6-3.15-29.09l-8.61-1.58v-6.91h44.97v6.91l-11.76,1.58c-3.39.48-4.24.73-4.24,29.09v21.09c0,16.12,1.45,18.91,12.61,18.54l7.39-.36c7.15-.24,8.61-.97,17.21-21.94l6.18.73-4.85,29.21h-67.51v-6.91Z"></path>
    <path class="cls-1" d="M333.43,402.67l8.61,1.58v6.91h-40.72v-6.91l8.61-1.58c2.55-.48,3.15-.73,3.15-29.09v-9.7c0-28.36-.61-28.6-3.15-29.09l-8.61-1.58v-6.91h40.72v6.91l-8.61,1.58c-2.55.48-3.15.73-3.15,29.09v9.7c0,28.36.61,28.6,3.15,29.09Z"></path>
    <path class="cls-1" d="M352.32,411.15v-6.91l8.61-1.58c2.55-.48,3.15-.73,3.15-29.09v-9.7c0-28.36-.61-28.6-3.15-29.09l-8.61-1.58v-6.91h40.73c29.45,0,48.12,14.18,48.12,40.24s-20.73,44.6-50.79,44.6h-38.06ZM422.37,369.82c0-18.42-8.85-35.51-34.42-35.51-2.06,0-3.39.12-5.82.36-.36,1.09-.85,3.39-.85,20v28.24c0,16.48,1.58,20.24,12.12,20.24h.73c17.58,0,28.24-13.09,28.24-33.33Z"></path>
    <path class="cls-1" d="M479.21,404.24l8.6-1.58c2.55-.48,3.15-.73,3.15-29.09v-9.7c0-28.36-.61-28.6-3.15-29.09l-8.6-1.58v-6.91h37.21c22.3,0,35.63,7.39,35.63,23.39,0,8-5.33,17.7-17.21,22.79,4.61,8.48,10.18,17.7,16.12,25.33,3.27,4.12,5.45,4.97,12.24,6.42v6.18c-3.51,1.09-7.15,1.82-13.21,1.82-7.39,0-12.24-2.06-17.7-11.15-4.85-8.24-9.94-16.85-13.7-24.97-1.21.12-2.42.12-3.76.12-1.82,0-4.48-.24-6.67-.48,0,26.18.61,26.42,2.79,26.91l7.76,1.58v6.91h-39.51v-6.91ZM515.69,368.49c9.09,0,17.82-5.21,17.82-16.97,0-12.48-11.88-17.21-22.06-17.21h-2.42c-.36,1.09-.85,4.12-.85,20.36v12.97c2.18.48,4.61.85,7.51.85Z"></path>
    <path class="cls-1" d="M565.39,370.18c0-24.97,16.24-45.94,43.63-45.94s41.33,17.57,41.33,42.66-15.76,46.18-43.27,46.18-41.69-17.82-41.69-42.91ZM631.93,370.67c0-20-8-37.7-24.24-37.7-13.82,0-23.76,12.24-23.76,34.18s9.94,37.21,24.36,37.21,23.63-13.94,23.63-33.69Z"></path>
    <path class="cls-1" d="M660.29,369.94c0-24.6,15.27-45.69,44.12-45.69,12.48,0,21.94,3.88,27.63,7.39l.61,25.7-7.64.12c-3.64-17.45-11.27-24.48-22.54-24.48-14.67,0-24.36,12.24-24.36,33.33,0,23.88,13.58,32.97,26.79,32.97,11.64,0,22.3-6.91,23.63-21.82h6.67c-.24,18.91-10.18,35.76-34.18,35.76s-40.73-16.73-40.73-43.27Z"></path>
    <path class="cls-1" d="M745.66,411.54l9.41-1.72c2.78-.53,3.45-.79,3.45-31.81v-10.61c0-31.02-.66-31.28-3.45-31.81l-9.41-1.72v-7.56h44.54v7.56l-9.41,1.72c-2.78.53-3.45.79-3.45,31.81v10.61c0,31.02.66,31.28,3.45,31.81l9.41,1.72v7.56h-44.54v-7.56ZM808.76,409.55l-26.25-36.72v-3.45l26.11-24.79c4.77-4.64,6.23-8.35.79-9.41l-7.03-1.32v-7.56h35.13v7.56c-5.97,1.72-7.29,2.39-10.74,5.57l-27.71,25.58,27.97,37.51c5.17,7.03,9.41,7.82,15.64,9.01v7.03c-4.37,1.33-8.75,1.86-13.92,1.86-8.22,0-14.98-3.71-20.02-10.87Z"></path>
  </g>
  <g>
    <path class="cls-2" d="M192.19,454.76c-.16.16-2.3,1.55-3.05,1.87-.16.05-.16.64.11.75,3.37,1.23,6.64,3.75,6.64,8.08,0,5.09-3.91,7.76-7.01,8.94-2.2.86-6.59,1.12-7.87,1.12-3.37,0-6.53-.27-8.67-.32-1.82-.05-5.52.11-6.53.11-1.07,0-1.87-.32-1.87-1.07,0-.43.59-1.39,1.98-1.66,2.52-.54,3.21-1.34,3.37-2.73.11-.96.38-3.86.38-10.44,0-5.41-.11-9.64-.21-10.71-.16-1.87-.37-2.46-3.32-3-.59-.11-1.77-.86-1.77-1.5,0-.7,1.39-1.12,1.98-1.12h5.09c1.93,0,7.07-.38,10.66-.38,3.91,0,7.44,1.02,8.83,2.14,1.87,1.45,2.84,3.48,2.84,5.68,0,1.82-.59,3.21-1.55,4.23ZM180.46,459.31c-.48,0-1.5.11-1.93.38-.05.05-.59.8-.64,1.18-.27,1.39.11,7.39.37,8.78.27,1.45,1.98,3.11,3.69,3.11,2.2,0,4.02-2.36,4.23-3.05.32-1.02.64-2.41.64-3.59,0-4.87-3.64-6.8-6.37-6.8ZM179.87,445.55c-.16,0-1.29.16-1.5.27-.21.11-.32.27-.38.8-.16,3.59-.27,8.41,0,9.21.16.54.48.96,1.55.96,1.61,0,4.34-.75,4.82-1.23.48-.48,1.45-1.55,1.45-4.12,0-3.59-2.84-5.89-5.94-5.89Z"></path>
    <path class="cls-2" d="M227.1,447.26c2.89,7.76,7.28,18.15,8.73,21.42,1.34,3,2.09,3.05,4.18,3.91,1.23.54,1.66,1.34,1.66,1.93,0,.64-.86.91-1.87.91-1.66,0-5.84-.27-8.46-.27-2.3,0-3.75.27-5.68.27-1.5,0-1.98-.64-1.98-1.02,0-.64.64-1.39,1.66-1.82,1.87-.8,1.87-1.98,1.61-2.89-.48-1.34-.54-1.61-1.23-3.21-.05-.16-.54-.75-1.39-.86-.91-.11-7.6-.21-8.83.05-.32.05-.75.59-.86.8-.43,1.07-.86,3.11-.86,3.8,0,.96.7,1.77,2.41,2.36.75.27,1.55.7,1.55,1.39,0,.27-.75,1.28-2.14,1.28-.64,0-1.82-.16-3.53-.16-1.98,0-4.18.27-6.42.27-1.18,0-1.98-.54-1.98-1.18,0-.54.43-1.07,1.61-1.55,1.98-.8,3.05-.96,4.77-4.55,1.34-2.84,5.14-12.48,8.35-20.94.05-.16.16-.54.16-1.12,0-.21.27-.59.48-.75.7-.43,3.37-2.2,3.96-2.68.32-.32,1.18-.59,1.45-.59.96,0,1.29,1.61,2.68,5.19ZM223.89,461.4c-.8-2.62-3.05-8.35-3.53-9.21-.21-.38-.54-.21-.7,0-.86,1.77-3.16,8.35-3.32,9.16-.05.32.21.75.59.75.7,0,5.68,0,6.43-.05.27,0,.59-.48.54-.64Z"></path>
    <path class="cls-2" d="M269.24,447.74c-.21-.27-2.14-2.03-4.12-2.03-.59,0-1.28.21-1.5.43-.16.16-.38.48-.38.75-.16,2.14-.21,9-.21,11.19,0,5.35.05,9.48.05,10.01,0,3,.7,3.8,3.59,4.6,1.29.38,1.82.75,1.82,1.5,0,.48-.75,1.12-2.14,1.12-1.61,0-3.96-.16-6.16-.16-1.93,0-6.96.32-8.73.32-1.34,0-2.25-.48-2.25-1.18s.54-1.18,2.09-1.66c2.3-.75,2.68-1.66,2.84-3.05.11-1.07.48-7.66.48-15.1,0-2.3-.05-4.87-.21-6.1-.11-1.23-.54-2.2-2.89-2.73-.86-.21-1.87-1.02-1.87-1.55,0-.96.75-1.18,1.66-1.18,2.3,0,3.8.21,6.48.21,1.82,0,4.66-.27,8.83-.27,4.66,0,8.08,1.45,9.91,3.32,1.29,1.34,2.89,4.28,2.89,7.07,0,4.18-2.46,7.12-3.53,8.03-2.2,1.82-4.5,2.62-6.96,2.62-1.39,0-2.2-.21-3-.75-.59-.38-1.07-.91-1.07-1.18,0-.59.21-.96.64-1.02.21-.05.48-.05.75-.11,1.29-.32,4.5-1.12,4.5-7.55,0-3-1.23-5.19-1.5-5.57Z"></path>
    <path class="cls-2" d="M316.15,443.14c3,0,4.34-.38,4.55-.64.64-.8,1.23-1.29,1.61-1.29.32,0,1.71.86,1.71,1.71,0,.38-.64,3.75-.64,7.34,0,1.07-.8,2.25-1.82,2.25-.75,0-1.18-1.34-1.28-1.82-.8-3.53-1.71-3.64-3.64-3.86-.8-.11-1.5-.27-5.52-.27-.27,0-.43.43-.48.96-.05.75-.38,7.98-.38,11.35s-.05,6.8.11,8.73c.32,3.91,1.23,4.07,3.43,4.87.96.37,1.87.86,1.87,1.5,0,1.18-1.29,1.45-2.36,1.45-.54,0-6.42-.27-9.64-.27-1.55,0-4.44.16-5.89.16-1.12,0-2.2-.48-2.2-1.45,0-.43.54-1.18,1.77-1.5,3.32-.91,4.23-1.61,4.23-4.55,0-1.12.11-8.25.11-11.73s.05-6.85.05-8.51c0-.43-.54-1.02-.7-1.02-1.34,0-3.32,0-4.71.05-1.5.05-2.94.05-4.39,4.07-.32.91-.96,1.61-1.55,1.61-.7,0-1.5-.96-1.5-2.25,0-1.66.59-4.07.59-7.01,0-.91.8-1.71,1.45-1.71.16,0,.8.32,1.18.59.91.75,1.71,1.07,3.27,1.12,2.2.11,2.68.11,4.39.11h16.38Z"></path>
    <path class="cls-2" d="M338.43,451.06c0-4.5-.21-5.09-3.11-5.73-.91-.21-1.45-.86-1.45-1.34,0-.8,1.29-1.07,1.82-1.07,1.02,0,4.39.21,6.75.21,3.21,0,5.84-.16,7.39-.16.8,0,1.66.43,1.66,1.12,0,.64-.91,1.07-1.34,1.18-2.62.59-2.78,1.29-3,4.07-.16,2.3-.21,6.96-.21,10.6,0,5.84.11,7.92.11,8.62.11,2.52.38,3.59,3.05,4.23,1.02.27,1.71.8,1.71,1.55,0,.64-1.18.96-1.82.96-.54,0-5.73-.16-7.55-.16s-5.78.21-6.75.21c-.7,0-1.82-.16-1.82-1.02,0-.59.86-1.29,1.61-1.5,2.14-.7,2.46-1.34,2.73-2.94.16-1.12.21-2.09.21-6.48v-12.37Z"></path>
    <path class="cls-2" d="M383.03,443.57c.32.05.7.91.7,1.5,0,.64.37,3.59.37,4.39,0,1.82-.86,2.57-1.61,2.57-.59,0-1.07-.91-1.23-1.34-1.18-3.21-3.96-6.1-7.01-6.1-2.25,0-4.28,2.09-4.28,4.12,0,2.41,1.77,4.18,4.82,5.73,6.75,3.43,10.71,6.42,10.71,11.51,0,4.39-3,6.85-4.93,8.03-2.09,1.23-5.62,2.14-8.08,2.14-4.55,0-7.17-.96-8.41-1.45-.38-.16-1.23-.64-1.5-1.23-.91-1.93-1.07-4.71-1.07-6,0-1.02.54-2.3,1.39-2.3.59,0,1.29.64,2.03,2.04,1.98,3.64,4.93,6.26,8.25,6.26,1.93,0,4.34-1.34,4.34-3.8,0-1.61.11-3.37-5.35-6.32-7.01-3.75-9.75-6.64-9.75-11.62,0-3.48,2.46-6.32,5.03-7.76,2.03-1.12,4.6-1.82,7.66-1.82s5.84.96,7.92,1.45Z"></path>
    <path class="cls-2" d="M422.55,443.14c3,0,4.34-.38,4.55-.64.64-.8,1.23-1.29,1.61-1.29.32,0,1.71.86,1.71,1.71,0,.38-.64,3.75-.64,7.34,0,1.07-.8,2.25-1.82,2.25-.75,0-1.18-1.34-1.28-1.82-.8-3.53-1.71-3.64-3.64-3.86-.8-.11-1.5-.27-5.52-.27-.27,0-.43.43-.48.96-.05.75-.38,7.98-.38,11.35s-.05,6.8.11,8.73c.32,3.91,1.23,4.07,3.43,4.87.96.37,1.87.86,1.87,1.5,0,1.18-1.29,1.45-2.36,1.45-.54,0-6.42-.27-9.64-.27-1.55,0-4.44.16-5.89.16-1.12,0-2.2-.48-2.2-1.45,0-.43.54-1.18,1.77-1.5,3.32-.91,4.23-1.61,4.23-4.55,0-1.12.11-8.25.11-11.73s.05-6.85.05-8.51c0-.43-.54-1.02-.7-1.02-1.34,0-3.32,0-4.71.05-1.5.05-2.94.05-4.39,4.07-.32.91-.96,1.61-1.55,1.61-.7,0-1.5-.96-1.5-2.25,0-1.66.59-4.07.59-7.01,0-.91.8-1.71,1.45-1.71.16,0,.8.32,1.18.59.91.75,1.71,1.07,3.27,1.12,2.2.11,2.68.11,4.39.11h16.38Z"></path>
    <path class="cls-2" d="M484.02,442.98c1.34.38,3.27.96,3.69.96.27,0,.91.7.91,1.02,0,1.93.54,4.66.54,6,0,1.5-1.02,2.36-1.71,2.36-.43,0-.7-.43-1.12-1.61-.8-2.2-1.12-3.37-3.11-4.82-1.66-1.23-3.53-2.14-5.84-2.14s-5.25,1.34-7.01,3.48c-2.3,2.73-3.37,6.8-3.37,10.01,0,4.07,1.34,7.71,2.89,9.91,1.93,2.73,5.46,4.71,8.67,4.71,1.34,0,3.75-.86,4.82-1.45.43-.27,1.39-1.29,2.73-3.43,1.02-1.61,1.66-2.25,2.19-2.25,1.02,0,1.12,1.02,1.07,2.14,0,.48-1.02,4.07-1.02,5.09,0,.16-.43.91-.59,1.02-1.87.91-6.64,2.14-10.33,2.14-5.94,0-12.26-1.77-16.06-5.94-2.36-2.57-4.02-6.1-4.02-10.87,0-5.73,2.57-10.55,7.28-13.81,2.41-1.66,7.44-3.43,13.01-3.43,2.46,0,4.93.54,6.37.91Z"></path>
    <path class="cls-2" d="M514.17,456.9c9.37,0,11.19-.05,12.21,0,.21,0,.64-.8.64-1.02,0-3.64,0-6.64-.21-7.92-.16-.96-.27-1.5-2.57-2.09-1.98-.54-2.3-1.34-2.3-1.71,0-.54.96-1.18,2.09-1.18,2.2,0,3.69.16,5.73.16s7.44-.16,8.51-.16,1.71.54,1.71,1.18c0,.59-.64,1.18-2.03,1.5-1.66.37-2.03,1.18-2.2,2.46-.21,1.55-.27,5.73-.27,10.39,0,6.64.16,8.51.27,10.5.16,2.57,1.07,3,2.73,3.43,1.5.38,2.03,1.02,2.03,1.61,0,.7-.86,1.28-2.03,1.28-1.02,0-3.05-.16-5.03-.16-2.78,0-7.39.27-9,.27-1.07,0-2.09-.43-2.09-1.29,0-.54.48-.96,2.14-1.61,1.98-.75,2.2-1.93,2.36-2.78.27-1.66.38-6,.16-7.87-.16-1.34-.64-1.45-.7-1.45-3.96,0-11.57.16-12.31.16-.38,0-.64,1.07-.64,1.34,0,1.45.05,6.64.11,7.44.16,1.82.38,2.68,3.05,3.32.64.16,1.71.86,1.71,1.55,0,.91-.75,1.12-2.09,1.12-1.55,0-5.41-.21-7.71-.21-1.71,0-4.82.27-6.43.27-1.12,0-2.03-.59-2.03-1.23,0-.59.96-1.18,1.93-1.55,2.25-.91,2.68-1.39,2.78-3.69.16-2.36.16-8.3.16-16.01,0-4.02-.16-4.39-.27-5.03-.21-1.23-.86-1.98-3.32-2.57-.59-.16-1.18-.64-1.18-1.23s1.18-1.18,2.2-1.18c2.62,0,6.32.21,7.76.21,1.66,0,2.73-.11,4.6-.11.86,0,1.93.27,1.93,1.23,0,.8-1.28,1.29-1.93,1.5-.86.32-1.29,1.39-1.29,2.73v7.07c0,.75.43,1.34.8,1.34Z"></path>
    <path class="cls-2" d="M551.23,442.87c1.66,0,5.68.27,7.44.27,2.36,0,4.87-.16,5.62-.16,1.39,0,2.36.75,2.36,1.29,0,.64-1.23,1.34-2.04,1.55-2.41.64-2.73,1.34-2.89,3.86-.21,2.89-.21,6.85.05,11.46.27,4.66,1.28,7.12,2.41,8.08,1.5,1.29,3.69,2.25,5.94,2.25,4.12,0,7.44-1.98,8.14-7.76.27-2.14.32-7.92.32-11.03,0-5.57-.05-6-3.86-6.91-1.07-.27-1.98-.7-1.98-1.61,0-.43.75-1.18,2.2-1.18,1.07,0,2.78.16,4.82.16,1.93,0,4.12-.27,6-.27,1.02,0,2.09.32,2.09,1.23,0,.7-.91,1.23-1.98,1.61-2.46.91-2.84,1.34-3.16,3.96-.11.64-.32,5.14-.54,9.26-.48,8.67-2.25,11.4-4.87,13.97-2.2,2.14-5.94,3.21-9.64,3.21-4.34,0-9-1.34-11.24-4.34-3-3.96-3.21-8.08-3.21-14.19,0-6.42-.11-7.23-.21-8.83-.16-2.14-.54-2.41-2.52-3-1.07-.32-1.98-.75-1.98-1.66,0-.75.96-1.23,2.73-1.23Z"></path>
    <path class="cls-2" d="M623.14,457.06c-.8.7-1.55.86-2.68,1.5-.27.16,0,1.18.16,1.5,1.18,2.36,3.59,6.32,5.62,8.89,1.87,2.36,3.53,3.27,5.19,3.91.54.21,1.23.7,1.23,1.18,0,1.39-1.71,1.82-3.16,1.82-4.28,0-8.41-.43-12.15-5.3-1.93-2.52-3.37-5.19-4.87-7.6-.86-1.39-1.61-1.66-2.46-1.66-.38,0-.43.64-.43.8,0,4.28,0,5.57.16,7.44.16,1.93.7,1.98,2.84,3,.96.48,1.61,1.07,1.61,1.5,0,.59-1.12,1.34-2.04,1.34-1.34,0-5.46-.21-7.33-.21-1.66,0-4.18.21-6.16.21-1.28,0-2.03-.64-2.03-1.18,0-.75.75-1.29,1.77-1.55,2.2-.64,2.73-1.07,2.84-3.75.05-1.93.05-2.89.05-12.53,0-5.51-.16-6.91-.27-8.03-.11-1.07-.59-2.14-2.62-2.52-1.02-.21-1.66-1.02-1.66-1.39,0-.91,1.07-1.39,2.36-1.39,2.73,0,3.64.11,4.34.11,3.53,0,6.48-.32,10.23-.32,4.71,0,7.17,1.02,8.46,1.98,2.3,1.77,3.43,3.91,3.43,6.75,0,2.03-1.02,4.34-2.41,5.51ZM611.15,445.76c-.21,0-1.02.21-1.34.43-.16.11-.32.38-.32.86,0,1.5.11,6.48.11,10.07,0,.21.21.86.43.96.75.32,1.45.48,2.36.48,1.18,0,3.11-1.23,3.43-1.45s1.5-2.09,1.5-4.66c0-3.37-2.3-6.69-6.16-6.69Z"></path>
    <path class="cls-2" d="M666.73,442.98c1.34.38,3.27.96,3.69.96.27,0,.91.7.91,1.02,0,1.93.54,4.66.54,6,0,1.5-1.02,2.36-1.71,2.36-.43,0-.7-.43-1.12-1.61-.8-2.2-1.12-3.37-3.11-4.82-1.66-1.23-3.53-2.14-5.84-2.14s-5.25,1.34-7.01,3.48c-2.3,2.73-3.37,6.8-3.37,10.01,0,4.07,1.34,7.71,2.89,9.91,1.93,2.73,5.46,4.71,8.67,4.71,1.34,0,3.75-.86,4.82-1.45.43-.27,1.39-1.29,2.73-3.43,1.02-1.61,1.66-2.25,2.2-2.25,1.02,0,1.12,1.02,1.07,2.14,0,.48-1.02,4.07-1.02,5.09,0,.16-.43.91-.59,1.02-1.87.91-6.64,2.14-10.33,2.14-5.94,0-12.26-1.77-16.06-5.94-2.36-2.57-4.02-6.1-4.02-10.87,0-5.73,2.57-10.55,7.28-13.81,2.41-1.66,7.44-3.43,13.01-3.43,2.46,0,4.93.54,6.37.91Z"></path>
    <path class="cls-2" d="M696.88,456.9c9.37,0,11.19-.05,12.21,0,.21,0,.64-.8.64-1.02,0-3.64,0-6.64-.21-7.92-.16-.96-.27-1.5-2.57-2.09-1.98-.54-2.3-1.34-2.3-1.71,0-.54.96-1.18,2.09-1.18,2.2,0,3.69.16,5.73.16s7.44-.16,8.51-.16,1.71.54,1.71,1.18c0,.59-.64,1.18-2.03,1.5-1.66.37-2.04,1.18-2.2,2.46-.21,1.55-.27,5.73-.27,10.39,0,6.64.16,8.51.27,10.5.16,2.57,1.07,3,2.73,3.43,1.5.38,2.03,1.02,2.03,1.61,0,.7-.86,1.28-2.03,1.28-1.02,0-3.05-.16-5.03-.16-2.78,0-7.39.27-9,.27-1.07,0-2.09-.43-2.09-1.29,0-.54.48-.96,2.14-1.61,1.98-.75,2.2-1.93,2.36-2.78.27-1.66.38-6,.16-7.87-.16-1.34-.64-1.45-.7-1.45-3.96,0-11.57.16-12.32.16-.37,0-.64,1.07-.64,1.34,0,1.45.05,6.64.11,7.44.16,1.82.38,2.68,3.05,3.32.64.16,1.71.86,1.71,1.55,0,.91-.75,1.12-2.09,1.12-1.55,0-5.41-.21-7.71-.21-1.71,0-4.82.27-6.42.27-1.12,0-2.03-.59-2.03-1.23,0-.59.96-1.18,1.93-1.55,2.25-.91,2.68-1.39,2.78-3.69.16-2.36.16-8.3.16-16.01,0-4.02-.16-4.39-.27-5.03-.21-1.23-.86-1.98-3.32-2.57-.59-.16-1.18-.64-1.18-1.23s1.18-1.18,2.2-1.18c2.62,0,6.32.21,7.76.21,1.66,0,2.73-.11,4.6-.11.86,0,1.93.27,1.93,1.23,0,.8-1.29,1.29-1.93,1.5-.86.32-1.28,1.39-1.28,2.73v7.07c0,.75.43,1.34.8,1.34Z"></path>
  </g>
</svg>
