<svg xmlns="http://www.w3.org/2000/svg" id="Layer_2" viewBox="0 0 202.53 58.89"><defs><style>.cls-1{letter-spacing:0em;}.cls-2{letter-spacing:-.01em;}.cls-3{letter-spacing:0em;}.cls-4{letter-spacing:0em;}.cls-5{letter-spacing:0em;}.cls-6{fill:#c6894e;font-family:GaramondPremrPro-BdCapt, 'Garamond Premier Pro';font-size:42.9px;}</style></defs><g id="Layer_1-2"><text class="cls-6" transform="translate(0 35.61)"><tspan class="cls-5" x="0" y="0">S</tspan><tspan class="cls-3" x="23.34" y="0">o</tspan><tspan class="cls-4" x="47.02" y="0">l</tspan><tspan x="60.1" y="0">id </tspan><tspan class="cls-2" x="106.56" y="0">R</tspan><tspan x="135.95" y="0">o</tspan><tspan class="cls-1" x="159.63" y="0">c</tspan><tspan x="178.98" y="0">k</tspan></text><path d="M3.22,41.43h6.05c3.32,0,5.1,1.76,5.1,4.25,0,2.04-1.23,3.38-2.65,3.77,1.23.35,3.27,1.56,3.27,4.26,0,3.44-2.58,4.99-5.61,4.99H3.22v-17.27ZM8.83,48.84c2.96,0,4.09-1.1,4.09-3.08,0-1.69-1.18-3.06-3.58-3.06h-4.76v6.14h4.25ZM4.58,57.43h4.83c2.26,0,4.14-1.13,4.14-3.65,0-2.18-1.4-3.67-4.84-3.67h-4.13v7.32Z"></path><path d="M20.63,52.77l-2.18,5.93h-1.41l6.33-17.27h1.65l6.6,17.27h-1.51l-2.23-5.93h-7.26ZM27.43,51.5c-1.91-5.1-2.89-7.56-3.24-8.73h-.02c-.42,1.32-1.52,4.37-3.07,8.73h6.33Z"></path><path d="M34.67,41.43h6.19c3.17,0,5.35,1.76,5.35,4.82s-2.16,4.95-5.52,4.95h-4.61v7.5h-1.41v-17.27ZM36.07,49.92h4.72c2.76,0,3.93-1.46,3.93-3.62,0-2.31-1.52-3.6-3.83-3.6h-4.82v7.23Z"></path><path d="M53.74,42.7h-5.78v-1.27h13v1.27h-5.81v15.99h-1.41v-15.99Z"></path><path d="M64.9,41.43v17.27h-1.38v-17.27h1.38Z"></path><path d="M69.88,54.05c.52,2.28,2.04,3.63,4.86,3.63,3.13,0,4.33-1.56,4.33-3.42s-.86-3.13-4.64-4.07c-3.67-.92-5.24-2.11-5.24-4.6,0-2.29,1.67-4.4,5.37-4.4s5.42,2.32,5.65,4.43h-1.43c-.39-1.83-1.59-3.16-4.29-3.16-2.47,0-3.82,1.15-3.82,3.06s1.13,2.62,4.3,3.41c4.86,1.21,5.59,3.16,5.59,5.24,0,2.55-1.86,4.75-5.87,4.75-4.32,0-5.91-2.51-6.24-4.84h1.43Z"></path><path d="M87.75,42.7h-5.78v-1.27h13v1.27h-5.81v15.99h-1.41v-15.99Z"></path><path d="M117,54.07c-.81,2.75-2.84,4.83-6.51,4.83-4.97,0-7.58-3.95-7.58-8.81s2.57-8.91,7.61-8.91c3.74,0,5.94,2.09,6.5,4.97h-1.38c-.78-2.23-2.22-3.7-5.2-3.7-4.27,0-6.05,3.9-6.05,7.61s1.76,7.56,6.15,7.56c2.8,0,4.22-1.46,5.07-3.56h1.38Z"></path><path d="M120.72,41.43h1.38v7.51h10.29v-7.51h1.38v17.27h-1.38v-8.49h-10.29v8.49h-1.38v-17.27Z"></path><path d="M140.17,41.43v10.46c0,4.56,2.57,5.74,5,5.74,2.87,0,5-1.21,5-5.74v-10.46h1.41v10.38c0,5.41-2.87,7.09-6.46,7.09s-6.38-1.84-6.38-6.87v-10.6h1.43Z"></path><path d="M157.79,50.65v8.04h-1.41v-17.27h6.22c3.41,0,5.22,1.83,5.22,4.54,0,2.2-1.31,3.62-3.22,4.05,1.76.42,2.94,1.57,2.94,4.51v.67c0,1.21-.1,2.83.22,3.5h-1.4c-.32-.74-.25-2.12-.25-3.61v-.44c0-2.82-.83-3.99-4.12-3.99h-4.2ZM157.79,49.38h4.15c3.01,0,4.41-1.13,4.41-3.38,0-2.11-1.37-3.31-4.04-3.31h-4.51v6.68Z"></path><path d="M184.97,54.07c-.81,2.75-2.84,4.83-6.51,4.83-4.97,0-7.58-3.95-7.58-8.81s2.57-8.91,7.61-8.91c3.74,0,5.94,2.09,6.5,4.97h-1.38c-.78-2.23-2.22-3.7-5.2-3.7-4.27,0-6.05,3.9-6.05,7.61s1.76,7.56,6.15,7.56c2.8,0,4.22-1.46,5.07-3.56h1.38Z"></path><path d="M188.69,41.43h1.38v7.51h10.29v-7.51h1.38v17.27h-1.38v-8.49h-10.29v8.49h-1.38v-17.27Z"></path></g></svg>