<svg xmlns="http://www.w3.org/2000/svg" id="Layer_1" viewBox="0 0 731.4 451.3"><defs><style> .st0 { fill: #fff; } </style></defs><g><g><path class="st0" d="M177.1,175c0-2.4-.8-4.2-2.5-5.5-1.7-1.3-4.6-2.7-8.8-4.1-4.2-1.4-7.6-2.8-10.3-4.1-8.7-4.3-13-10.1-13-17.6s1.1-7,3.2-9.8c2.2-2.8,5.2-5,9.2-6.6,4-1.6,8.4-2.4,13.3-2.4s9.1.9,12.9,2.6c3.8,1.7,6.8,4.2,8.9,7.3s3.2,6.8,3.2,10.9h-16.1c0-2.7-.8-4.8-2.5-6.3-1.7-1.5-3.9-2.3-6.8-2.3s-5.2.6-6.8,1.9c-1.7,1.3-2.5,2.9-2.5,4.8s.9,3.3,2.8,4.7c1.8,1.4,5.1,2.8,9.7,4.3,4.6,1.5,8.4,3.1,11.4,4.8,7.2,4.2,10.8,9.9,10.8,17.2s-2.2,10.4-6.6,13.8c-4.4,3.3-10.5,5-18.2,5s-10.3-1-14.7-2.9c-4.4-1.9-7.7-4.6-9.9-8-2.2-3.4-3.3-7.3-3.3-11.7h16.2c0,3.6.9,6.2,2.8,7.9,1.9,1.7,4.9,2.6,9,2.6s4.8-.6,6.3-1.7c1.5-1.1,2.3-2.8,2.3-4.8Z"></path><path class="st0" d="M198.9,167.4c0-5,1-9.4,2.9-13.3,1.9-3.9,4.7-6.9,8.3-8.9,3.6-2.1,7.9-3.1,12.7-3.1,7.4,0,13.3,2.3,17.6,6.9,4.3,4.6,6.4,10.9,6.4,18.8v.6c0,7.8-2.2,13.9-6.5,18.5-4.3,4.5-10.1,6.8-17.5,6.8s-12.8-2.1-17.1-6.4c-4.3-4.2-6.6-10-6.9-17.3v-2.6ZM214.4,168.4c0,4.6.7,8,2.2,10.1,1.4,2.1,3.6,3.2,6.4,3.2,5.5,0,8.3-4.2,8.5-12.7v-1.6c0-8.9-2.8-13.4-8.5-13.4s-8,3.8-8.4,11.5v2.8Z"></path><path class="st0" d="M270,192.8h-15.5v-70.6h15.5v70.6Z"></path><path class="st0" d="M279.4,130.2c0-2.2.8-4,2.4-5.4,1.6-1.4,3.7-2.1,6.2-2.1s4.6.7,6.2,2.1c1.6,1.4,2.4,3.2,2.4,5.4s-.8,4-2.4,5.4c-1.6,1.4-3.7,2.1-6.2,2.1s-4.6-.7-6.2-2.1c-1.6-1.4-2.4-3.2-2.4-5.4ZM295.9,192.8h-15.5v-49.7h15.5v49.7Z"></path><path class="st0" d="M303.5,167.5c0-7.9,1.7-14.1,5.1-18.6,3.4-4.5,8.1-6.8,14.2-6.8s8.2,1.7,11.2,5.2v-25.2h15.5v70.6h-13.9l-.8-5.3c-3.2,4.2-7.2,6.3-12.1,6.3s-10.6-2.3-14.1-6.8c-3.5-4.5-5.2-11-5.2-19.3ZM319,168.5c0,8.8,2.6,13.2,7.7,13.2s5.9-1.4,7.4-4.3v-18.9c-1.4-2.9-3.8-4.4-7.3-4.4s-7.4,3.9-7.8,11.6v2.8Z"></path><path class="st0" d="M407.4,169.1h-8.7v23.7h-16.1v-66.9h26.3c7.9,0,14.1,1.8,18.6,5.3,4.5,3.5,6.7,8.5,6.7,14.9s-.9,8.5-2.8,11.6-4.8,5.5-8.8,7.4l14,27v.7h-17.3l-11.8-23.7ZM398.7,156.7h10.2c3.1,0,5.4-.8,6.9-2.4s2.3-3.9,2.3-6.8-.8-5.2-2.3-6.8-3.9-2.5-6.9-2.5h-10.2v18.4Z"></path><path class="st0" d="M441.3,167.4c0-5,1-9.4,2.9-13.3,1.9-3.9,4.7-6.9,8.3-8.9,3.6-2.1,7.9-3.1,12.7-3.1,7.4,0,13.3,2.3,17.6,6.9,4.3,4.6,6.4,10.9,6.4,18.8v.6c0,7.8-2.2,13.9-6.5,18.5-4.3,4.5-10.1,6.8-17.5,6.8s-12.8-2.1-17.1-6.4c-4.3-4.2-6.6-10-6.9-17.3v-2.6ZM456.8,168.4c0,4.6.7,8,2.2,10.1,1.4,2.1,3.6,3.2,6.4,3.2,5.5,0,8.3-4.2,8.5-12.7v-1.6c0-8.9-2.8-13.4-8.5-13.4s-8,3.8-8.4,11.5v2.8Z"></path><path class="st0" d="M517.1,181.7c2.2,0,3.9-.6,5.1-1.8,1.2-1.2,1.8-2.8,1.7-4.9h14.5c0,5.5-2,9.9-5.9,13.4s-8.9,5.2-15.1,5.2-12.9-2.3-17.1-6.8c-4.2-4.5-6.3-10.8-6.3-18.8v-.6c0-5,.9-9.5,2.8-13.3,1.9-3.8,4.5-6.8,8-8.9,3.5-2.1,7.6-3.1,12.4-3.1s11.6,1.8,15.4,5.4c3.8,3.6,5.7,8.4,5.7,14.6h-14.5c0-2.6-.6-4.5-1.9-5.9-1.3-1.4-2.9-2.1-5.1-2.1-4,0-6.4,2.6-7,7.7-.2,1.6-.3,3.9-.3,6.7,0,5,.6,8.5,1.8,10.4,1.2,1.9,3.1,2.9,5.7,2.9Z"></path><path class="st0" d="M565,174.2l-4.4,4.4v14.2h-15.5v-70.6h15.5v37.5l1.6-2.1,11.7-14.5h18.6l-17.4,20.5,18.6,29.3h-17.7l-10.8-18.5Z"></path></g><g><path class="st0" d="M55.3,273.7v-66.9h24c8.6,0,15.2,1.6,19.6,4.7,4.5,3.2,6.7,7.7,6.7,13.7s-.8,6.4-2.4,8.9c-1.6,2.5-3.9,4.3-7,5.4,3.5.9,6.2,2.6,8,5.1,1.9,2.5,2.8,5.6,2.8,9.2,0,6.6-2.1,11.5-6.2,14.8-4.2,3.3-10.3,5-18.5,5h-27.2ZM71.4,234.7h8.4c3.5,0,6-.7,7.5-1.9,1.5-1.3,2.3-3.1,2.3-5.6s-.8-4.9-2.4-6.1c-1.6-1.2-4.2-1.9-7.9-1.9h-7.9v15.5ZM71.4,245.3v16h10.6c2.9,0,5.1-.7,6.7-2,1.6-1.3,2.3-3.2,2.3-5.6,0-5.6-2.8-8.4-8.3-8.4h-11.3Z"></path><path class="st0" d="M143.3,273.7c-.6-1-1-2.5-1.5-4.5-2.8,3.6-6.8,5.4-11.9,5.4s-8.7-1.4-11.9-4.3c-3.3-2.8-4.9-6.4-4.9-10.7s2-9.5,6-12.2c4-2.8,9.8-4.1,17.4-4.1h4.8v-2.6c0-4.6-2-6.9-5.9-6.9s-5.5,1.8-5.5,5.4h-15.5c0-4.8,2-8.7,6.1-11.7s9.3-4.5,15.6-4.5,11.4,1.5,15,4.6c3.7,3.1,5.6,7.3,5.7,12.7v22c0,4.6.8,8.1,2.1,10.5v.8h-15.5ZM133.6,263.6c1.9,0,3.5-.4,4.8-1.2,1.3-.8,2.2-1.8,2.7-2.8v-8h-4.5c-5.4,0-8.1,2.4-8.1,7.3s.5,2.6,1.4,3.4c.9.9,2.2,1.3,3.6,1.3Z"></path><path class="st0" d="M211.4,249.2c0,7.7-1.7,13.9-5.2,18.5-3.5,4.6-8.2,6.9-14.1,6.9s-8.3-1.7-11.3-5v23.2h-15.5v-68.8h14.5l.5,4.6c3-3.7,6.9-5.5,11.7-5.5s10.9,2.3,14.3,6.8c3.4,4.5,5.1,10.7,5.1,18.6v.7ZM195.9,248.2c0-8.8-2.6-13.2-7.7-13.2s-6.1,1.3-7.4,4v19.6c1.3,2.8,3.8,4.1,7.4,4.1s7.5-4.3,7.6-12.8v-1.7Z"></path><path class="st0" d="M236.3,211.6v12.4h8.2v10.8h-8.2v22.8c0,1.9.3,3.2,1,3.9.7.7,2,1.1,4,1.1s2.8,0,3.9-.3v11.1c-2.8.9-5.7,1.3-8.7,1.3-5.3,0-9.3-1.3-11.8-3.8-2.5-2.5-3.8-6.3-3.8-11.4v-24.7h-6.3v-10.8h6.3v-12.4h15.5Z"></path><path class="st0" d="M250.4,211.2c0-2.2.8-4,2.4-5.4,1.6-1.4,3.7-2.1,6.2-2.1s4.6.7,6.2,2.1c1.6,1.4,2.4,3.2,2.4,5.4s-.8,4-2.4,5.4c-1.6,1.4-3.7,2.1-6.2,2.1s-4.6-.7-6.2-2.1c-1.6-1.4-2.4-3.2-2.4-5.4ZM266.9,273.7h-15.5v-49.7h15.5v49.7Z"></path><path class="st0" d="M302.5,259.7c0-1.3-.7-2.4-2.1-3.2-1.4-.8-4-1.6-7.9-2.5-3.9-.9-7-2-9.6-3.4-2.5-1.4-4.4-3.1-5.7-5.1-1.3-2-2-4.3-2-6.8,0-4.6,1.9-8.3,5.7-11.3,3.8-3,8.7-4.4,14.8-4.4s11.8,1.5,15.8,4.5c4,3,6,6.9,6,11.7h-15.5c0-4-2.1-6-6.3-6s-3,.5-4.1,1.4c-1.1.9-1.7,2-1.7,3.4s.7,2.5,2,3.4c1.3.9,3.5,1.6,6.5,2.1,3,.6,5.6,1.2,7.8,2,7.5,2.6,11.2,7.2,11.2,13.8s-2,8.2-6,11.1c-4,2.8-9.2,4.3-15.6,4.3s-8.1-.8-11.4-2.3c-3.3-1.5-5.9-3.6-7.8-6.3-1.9-2.6-2.8-5.4-2.8-8.3h14.5c0,2.3.8,4,2.3,5,1.5,1.1,3.4,1.6,5.7,1.6s3.7-.4,4.8-1.3c1.1-.9,1.6-2,1.6-3.4Z"></path><path class="st0" d="M342.7,211.6v12.4h8.2v10.8h-8.2v22.8c0,1.9.3,3.2,1,3.9.7.7,2,1.1,4,1.1s2.8,0,3.9-.3v11.1c-2.8.9-5.7,1.3-8.7,1.3-5.3,0-9.3-1.3-11.8-3.8-2.5-2.5-3.8-6.3-3.8-11.4v-24.7h-6.3v-10.8h6.3v-12.4h15.5Z"></path><path class="st0" d="M435.3,251.1c-.2,4.7-1.5,8.8-3.8,12.3-2.3,3.6-5.5,6.3-9.7,8.3-4.2,2-8.9,2.9-14.2,2.9-8.8,0-15.7-2.9-20.8-8.6-5.1-5.7-7.6-13.8-7.6-24.3v-3.3c0-6.6,1.1-12.3,3.4-17.2,2.3-4.9,5.6-8.7,9.9-11.4,4.3-2.7,9.3-4,14.9-4,8.1,0,14.6,2.1,19.6,6.4s7.7,10.2,8.4,17.7h-16.1c-.1-4.1-1.1-7-3.1-8.8-1.9-1.8-4.9-2.7-8.8-2.7s-7,1.5-8.8,4.5-2.8,7.8-2.9,14.4v4.7c0,7.1.9,12.2,2.7,15.3,1.8,3.1,4.9,4.6,9.3,4.6s6.5-.9,8.5-2.6,3-4.5,3.1-8.3h16Z"></path><path class="st0" d="M457.3,229.3c3.3-4.2,7.5-6.2,12.7-6.2s9.6,1.6,12.4,4.9c2.8,3.2,4.2,8,4.3,14.4v31.4h-15.5v-31c0-2.6-.5-4.6-1.6-5.8-1.1-1.2-2.9-1.9-5.5-1.9s-5.4,1-6.8,3v35.7h-15.5v-70.6h15.5v26.2Z"></path><path class="st0" d="M524.9,268.3c-3.3,4.2-7.7,6.3-13.3,6.3s-9.6-1.6-12.4-4.8-4.2-7.7-4.2-13.7v-32.2h15.5v32.3c0,4.3,2.1,6.4,6.2,6.4s6.1-1.3,7.6-3.8v-34.9h15.6v49.7h-14.5l-.5-5.4Z"></path><path class="st0" d="M578.5,238l-5.1-.4c-4.9,0-8,1.5-9.4,4.6v31.5h-15.5v-49.7h14.5l.5,6.4c2.6-4.9,6.2-7.3,10.9-7.3s3.1.2,4.3.6l-.3,14.4Z"></path><path class="st0" d="M604.2,262.7c2.2,0,3.9-.6,5.1-1.8s1.8-2.8,1.7-4.9h14.5c0,5.5-2,9.9-5.9,13.4s-8.9,5.2-15.1,5.2-12.9-2.3-17.1-6.8-6.3-10.8-6.3-18.8v-.6c0-5,.9-9.5,2.8-13.3,1.9-3.8,4.5-6.8,8-8.9,3.5-2.1,7.6-3.1,12.4-3.1s11.6,1.8,15.4,5.4c3.8,3.6,5.7,8.4,5.7,14.6h-14.5c0-2.6-.6-4.5-1.9-5.9-1.3-1.4-2.9-2.1-5.1-2.1-4,0-6.4,2.6-7,7.7-.2,1.6-.3,3.9-.3,6.7,0,5,.6,8.5,1.8,10.4,1.2,1.9,3.1,2.9,5.7,2.9Z"></path><path class="st0" d="M647.2,229.3c3.3-4.2,7.5-6.2,12.7-6.2s9.6,1.6,12.4,4.9c2.8,3.2,4.2,8,4.3,14.4v31.4h-15.5v-31c0-2.6-.5-4.6-1.6-5.8-1.1-1.2-2.9-1.9-5.5-1.9s-5.4,1-6.8,3v35.7h-15.5v-70.6h15.5v26.2Z"></path></g><g><path class="st0" d="M205.6,314.4c-.2.3-.4.6-.5.6h-3.4c0,0-.2.2-.3.4l-1,3.9c0,.1,0,.3.3.3h3.5c.2,0,.5.7.4.9,0,.3-.8,3.2-1,3.6,0,.2-.7.4-.6.4h-3.5c0,0-.3.3-.3.4l-1.6,6.8s-.2.3-.3.3c-.4.2-1.2.2-1.6.2s-.6-.2-.6-.4l1.7-6.9c0-.2,0-.4-.2-.4h-4.7c0,0-.3.3-.3.3l-1.6,6.7c0,.2-.3.4-.5.5-.2,0-.8.4-1.3.4s-.7-.2-.7-.6l1.7-7c0-.1-.1-.2-.2-.2h-3.5s-.4-.4-.4-.7c0-.6.8-3.6,1.1-3.9.2-.2.5-.4.6-.4h3.3c.1,0,.3-.2.4-.4l1-4c0-.2-.1-.3-.2-.3h-3.3c-.2,0-.7-.2-.7-.5,0-.3,0-1.1.1-1.6,0-.3.8-2.6,1.1-2.6h3.8c.1,0,.5-.3.5-.5l1.6-5.9c0-.2.2-.5.4-.6.3-.1,1.1-.1,1.6-.1s.6.2.5.5l-1.7,6.1c0,.2,0,.3.3.3h4.4c.2-.1.4-.2.5-.4l1.6-6c0-.1.3-.4.6-.5.2,0,.8,0,1.3,0s.5.2.5.5l-1.7,6c0,0,0,.3.1.3h3.5c.2,0,.7.3.5,1.4,0,.2-.7,2.4-.9,2.7ZM198.9,315h-4.8c-.2.1-.4.3-.5.6l-.9,3.8c0,0,.1.3.2.3h4.8c0,0,.3-.2.3-.4l1-4c0-.1,0-.3-.2-.3Z"></path><path class="st0" d="M233,316.1c-.7.6-1.3.7-2.3,1.3-.2.1,0,1,.1,1.3,1,2,3.1,5.5,4.9,7.7,1.6,2,3.1,2.8,4.5,3.4.5.2,1.1.6,1.1,1,0,1.2-1.5,1.6-2.7,1.6-3.7,0-7.3-.4-10.5-4.6-1.7-2.2-2.9-4.5-4.2-6.6-.7-1.2-1.4-1.4-2.1-1.4s-.4.6-.4.7c0,3.7,0,4.8.1,6.5.1,1.7.6,1.7,2.5,2.6.8.4,1.4.9,1.4,1.3s-1,1.2-1.8,1.2c-1.2,0-4.7-.2-6.4-.2s-3.6.2-5.3.2-1.8-.6-1.8-1,.7-1.1,1.5-1.3c1.9-.6,2.4-.9,2.5-3.3,0-1.7,0-2.5,0-10.9s-.1-6-.2-7c0-.9-.5-1.9-2.3-2.2-.9-.2-1.4-.9-1.4-1.2,0-.8.9-1.2,2-1.2,2.4,0,3.2,0,3.8,0,3.1,0,5.6-.3,8.9-.3s6.2.9,7.3,1.7c2,1.5,3,3.4,3,5.9s-.9,3.8-2.1,4.8ZM222.6,306.3c-.2,0-.9.2-1.2.4-.1,0-.3.3-.3.7,0,1.3,0,5.6,0,8.7s.2.7.4.8c.6.3,1.3.4,2,.4s2.7-1.1,3-1.3c.3-.2,1.3-1.8,1.3-4s-2-5.8-5.3-5.8Z"></path><path class="st0" d="M242.6,303.8c1.4,0,4.9.2,6.5.2s4.2-.1,4.9-.1c1.2,0,2,.7,2,1.1s-1.1,1.2-1.8,1.3c-2.1.6-2.4,1.2-2.5,3.3-.2,2.5-.2,5.9,0,9.9.2,4,1.1,6.2,2.1,7,1.3,1.1,3.2,2,5.2,2,3.6,0,6.5-1.7,7.1-6.7.2-1.9.3-6.9.3-9.6,0-4.8,0-5.2-3.3-6-.9-.2-1.7-.6-1.7-1.4s.7-1,1.9-1,2.4.1,4.2.1,3.6-.2,5.2-.2,1.8.3,1.8,1.1-.8,1.1-1.7,1.4c-2.1.8-2.5,1.2-2.7,3.4,0,.6-.3,4.5-.5,8-.4,7.5-2,9.9-4.2,12.1-1.9,1.9-5.2,2.8-8.4,2.8s-7.8-1.2-9.8-3.8c-2.6-3.4-2.8-7-2.8-12.3s0-6.3-.2-7.7c-.1-1.9-.5-2.1-2.2-2.6-.9-.3-1.7-.6-1.7-1.4s.8-1.1,2.4-1.1Z"></path><path class="st0" d="M299.6,303.9c1.2.3,2.8.8,3.2.8s.8.6.8.9c0,1.7.5,4,.5,5.2s-.9,2-1.5,2-.6-.4-1-1.4c-.7-1.9-1-2.9-2.7-4.2-1.4-1.1-3.1-1.9-5.1-1.9s-4.6,1.2-6.1,3c-2,2.4-2.9,5.9-2.9,8.7s1.2,6.7,2.5,8.6c1.7,2.4,4.7,4.1,7.5,4.1s3.3-.7,4.2-1.3c.4-.2,1.2-1.1,2.4-3,.9-1.4,1.4-2,1.9-2,.9,0,1,.9.9,1.9,0,.4-.9,3.5-.9,4.4s-.4.8-.5.9c-1.6.8-5.8,1.9-9,1.9-5.2,0-10.6-1.5-13.9-5.2-2-2.2-3.5-5.3-3.5-9.4s2.2-9.2,6.3-12c2.1-1.4,6.5-3,11.3-3s4.3.5,5.5.8Z"></path><path class="st0" d="M310.4,303.8c.7,0,4,.2,5.2.2,2.2,0,6-.1,6.5-.1,1.1,0,1.5.6,1.5,1,0,.7-1,1.1-1.3,1.3-2,.6-2.3,1.3-2.3,2s0,3.8,0,8.4.2.4.5.4.7-.1,1.3-.6c2.2-1.7,7.1-7,8.5-8.8.4-.5.1-.8-1-1.1-1.3-.3-1.5-.8-1.5-1.4s.7-.8,1.5-.8h2.3c3.2,0,4.4-.3,6.9-.3s1.8.6,1.8,1-.6,1.1-1.6,1.3c-1.6.3-3.9,1.3-5.7,2.8-1.6,1.3-3.8,3.1-6.2,5.6-.2.2,0,.7,0,.7,2.7,4.1,7.5,9.7,9.2,11.6,1.7,1.9,2.6,2.2,4.2,2.9,1,.5,1.9.9,1.9,1.4s-.5,1.1-1.7,1.1c-2.2,0-8.8-.4-10.5-.4h-2.1c-.7,0-1.8-.3-1.8-1.4s.3-.7,1.7-1.2c.5-.1.8-.6.5-1.1-2.1-2.9-4.7-6.1-6.6-8.6-.4-.6-.7-.7-.9-.7-.3,0-.3.4-.3.9,0,2.1,0,4.7,0,7s.7,2.3,2.2,2.7c1.5.5,1.8.9,1.8,1.4s-.5,1.2-1.8,1.2-3.5-.1-5-.1c-2.2,0-6,.2-6.8.2s-2-.3-2-1.2.5-.9,1.3-1.1c2.3-.6,2.6-.9,2.8-3.3,0-1.2,0-2.4,0-10.2s0-7.1-.1-8c-.1-.8-.4-1.6-2.1-2.1-1.4-.4-1.8-.8-1.8-1.5s.6-.8,1.7-.8Z"></path><path class="st0" d="M347.6,303.8c1.2,0,8.5.2,8.8.2s.9.8.9.9c.2.6.8,1.8,1.8,4,1,2.4,4.6,10.3,5.7,11.6,0,0,.4.2.6,0,1.5-3.3,3.6-7.7,5.1-11.2.9-2,1.2-3.3,1.6-4.4,0-.3.6-.9.9-.9.8,0,7.5-.3,9-.3s1.5.5,1.5,1.1-.4.8-1.3,1.1c-3,.9-3.1,1.1-3.1,2.3,0,6.6.3,12,.5,16.8.1,3.8,1.1,4.1,2.7,4.5,1.4.3,1.9.8,1.9,1.4s-.9,1.1-1.9,1.1-5.8-.3-8-.3-3.3.2-4.4.2-1.5-1-1.5-1.3.7-.7,1-.8c2.3-.8,2.7-1.3,2.7-3.9,0-1.2,0-9.7,0-14.1,0-.2-.3-.2-.6.2-.6,1.1-4.6,10.9-5.6,13.2-.5,1.2-1.3,3.4-1.9,5-.5,1.1-1.3,1.8-2.3,1.8s-1.1-.8-1.3-1.6c-.7-2.3-1.6-4.5-2-5.7-2-5.8-3.9-9.3-5.1-12.1-.2-.5-.6-.4-.6,0-.4,5.3-.6,10.7-.6,13.1s.3,2.9,2.8,3.9c1,.4,1.5.7,1.5,1.3s-.7,1.1-1.7,1.1-2.3-.2-3.7-.2-4.9.3-5.5.3c-.9,0-1.7-.5-1.7-1.1s.4-.9,1.5-1.3c2.3-.7,3.1-1.7,3.4-3.6.6-3.2,1.6-14,1.7-16.4,0-2.5-.6-2.8-2.9-3.5s-1.7-.7-1.7-1.1.7-1.3,1.7-1.3Z"></path><path class="st0" d="M407,307.6c2.5,6.7,6.3,15.7,7.6,18.6,1.2,2.6,1.8,2.6,3.6,3.4,1.1.5,1.4,1.2,1.4,1.7s-.7.8-1.6.8c-1.4,0-5.1-.2-7.3-.2s-3.3.2-4.9.2-1.7-.6-1.7-.9c0-.6.6-1.2,1.4-1.6,1.6-.7,1.6-1.7,1.4-2.5-.4-1.2-.5-1.4-1.1-2.8,0-.1-.5-.7-1.2-.7-.8,0-6.6-.2-7.7,0-.3,0-.7.5-.7.7-.4.9-.7,2.7-.7,3.3s.6,1.5,2.1,2c.7.2,1.3.6,1.3,1.2s-.7,1.1-1.9,1.1-1.6-.1-3.1-.1-3.6.2-5.6.2-1.7-.5-1.7-1,.4-.9,1.4-1.3c1.7-.7,2.6-.8,4.1-3.9,1.2-2.5,4.5-10.8,7.2-18.2,0-.1.1-.5.1-1s.2-.5.4-.7c.6-.4,2.9-1.9,3.4-2.3.3-.3,1-.5,1.3-.5.8,0,1.1,1.4,2.3,4.5ZM404.2,319.8c-.7-2.3-2.6-7.2-3.1-8-.2-.3-.5-.2-.6,0-.7,1.5-2.7,7.2-2.9,7.9,0,.3.2.7.5.7.6,0,4.9,0,5.6,0,.2,0,.5-.4.5-.6Z"></path><path class="st0" d="M422.2,303.7c1.9,0,5.6.3,8.5.3s1.1.3,1.2.5c.8,1.1,2.2,2.6,4.5,5.1,2.5,2.6,9.8,10.5,10.9,11.1.1,0,.5,0,.6-.2.3-1.3.3-5.7.1-8.9-.1-3.2,0-4.4-3.5-5.2-1.1-.3-1.5-1.1-1.5-1.3s.5-1,1.6-1,1.6,0,2.8,0c1.9,0,5.4-.2,6.4-.2s1.6.3,1.6,1.1-.4.8-1.9,1.5c-1.9.8-2.2,1.3-2.2,2,0,2.1-.5,11.7-.5,14.8s.2,4.1.2,6.2-.4,3.4-1.2,3.4c-1.5,0-2.7-.8-3.6-1.9-1.7-2-3.9-4.5-5.2-5.9-1.8-2-9-9.8-11.1-12-.1-.1-.5.1-.5.3,0,1-.1,1.6-.1,3.2s0,6.3.1,7.6c.1,3.6.7,4.7,2.4,5.4,1.6.6,2.1,1.1,2.1,1.8s-.5.9-1.6.9-2.9-.2-5.1-.2-3.3.2-3.9.2c-1.4,0-1.9-.5-1.9-1s.6-1,1.4-1.3c2.1-.7,3-.8,3.2-3.9s.6-14.3.6-15.7-.2-1.3-.8-2c-1-1.1-1.8-1.7-2.9-1.9s-2-.8-2-1.7.4-.8,1.2-.8Z"></path><path class="st0" d="M461.7,310.9c0-3.9-.2-4.4-2.7-5-.8-.2-1.3-.7-1.3-1.2,0-.7,1.1-.9,1.6-.9.9,0,3.8.2,5.9.2s5.1-.1,6.4-.1,1.4.4,1.4,1-.8.9-1.2,1c-2.3.5-2.4,1.1-2.6,3.5-.1,2-.2,6-.2,9.2,0,5.1,0,6.9,0,7.5,0,2.2.3,3.1,2.6,3.7.9.2,1.5.7,1.5,1.3s-1,.8-1.6.8-5-.1-6.5-.1-5,.2-5.9.2-1.6-.1-1.6-.9.7-1.1,1.4-1.3c1.9-.6,2.1-1.2,2.4-2.6.1-1,.2-1.8.2-5.6v-10.7Z"></path><path class="st0" d="M500,304c2.6,0,3.8-.3,3.9-.6.6-.7,1.1-1.1,1.4-1.1s1.5.7,1.5,1.5-.6,3.3-.6,6.4-.7,2-1.6,2-1-1.2-1.1-1.6c-.7-3.1-1.5-3.2-3.2-3.3-.7,0-1.3-.2-4.8-.2s-.4.4-.4.8c0,.7-.3,6.9-.3,9.8s0,5.9,0,7.6c.3,3.4,1.1,3.5,3,4.2.8.3,1.6.7,1.6,1.3,0,1-1.1,1.3-2,1.3s-5.6-.2-8.4-.2-3.9.1-5.1.1-1.9-.4-1.9-1.3.5-1,1.5-1.3c2.9-.8,3.7-1.4,3.7-3.9s0-7.2,0-10.2,0-5.9,0-7.4-.5-.9-.6-.9c-1.2,0-2.9,0-4.1,0-1.3,0-2.6,0-3.8,3.5-.3.8-.8,1.4-1.3,1.4s-1.3-.8-1.3-2,.5-3.5.5-6.1.7-1.5,1.3-1.5.7.3,1,.5c.8.7,1.5.9,2.8,1,1.9,0,2.3,0,3.8,0h14.2Z"></path><path class="st0" d="M525.4,304c4.2,0,4.9,0,5.9-.2.5,0,.8.2,1,.4.3.5.7,4,.7,5s-.6,1.5-.8,1.5c-.8,0-1.3-.5-1.9-1.8-.9-1.9-1.5-2.2-1.9-2.2-2.6,0-5.2.1-5.9.1s-.6.5-.6.7c0,.9-.1,4.2-.1,7.4s.1,1.2.4,1.3c.5.1,2.1,0,3,0,2.1-.1,2.7-.9,3.3-2,.3-.7.7-1.3,1.3-1.3s1.1.7,1,2c0,.6,0,1.6,0,2.7s0,2.1.1,2.8c0,1.3-.6,1.8-1.1,1.8s-1-.5-1.4-1.4c-.5-1.1-.6-1.4-1.6-1.5-1.9-.1-2.2-.2-4.3-.2s-.5.7-.5,1.8.1,3.9.2,5c0,1.3.3,1.9.4,2,.5.7,2.7,1.3,4.9,1.3s2-.1,3.1-.7c.9-.5,1.3-1,2.4-2.4.7-1,1.3-2.1,2-2.1s1.2,1.3,1,2.3c-.3,1.3-1.4,4.5-1.6,4.9-.1.3-1.1.8-1.4.8-.6,0-2.5-.2-10.9-.2s-8.8.2-10.8.2-1.7-.4-1.7-.7c0-.6.4-1.2,1.3-1.5,3.2-.9,3.3-2,3.4-2.8.2-2.2.2-3.2.2-10.4s0-7.4-.2-8.3c-.2-1.4-.8-1.9-2.7-2.4-1.2-.3-1.4-.9-1.4-1.3,0-.6.9-.9,1.5-.9s5.9.2,9,.2h4.8Z"></path><path class="st0" d="M558.4,304.4c.3,0,.6.8.6,1.3s.3,3.1.3,3.8c0,1.6-.7,2.2-1.4,2.2s-.9-.8-1.1-1.2c-1-2.8-3.4-5.3-6.1-5.3s-3.7,1.8-3.7,3.6,1.5,3.6,4.2,5c5.9,3,9.3,5.6,9.3,10s-2.6,5.9-4.3,7c-1.8,1.1-4.9,1.9-7,1.9-3.9,0-6.2-.8-7.3-1.3-.3-.1-1.1-.6-1.3-1.1-.8-1.7-.9-4.1-.9-5.2s.5-2,1.2-2,1.1.6,1.8,1.8c1.7,3.2,4.3,5.4,7.2,5.4s3.8-1.2,3.8-3.3,0-2.9-4.6-5.5c-6.1-3.3-8.5-5.8-8.5-10.1s2.1-5.5,4.4-6.7c1.8-1,4-1.6,6.6-1.6s5.1.8,6.9,1.3Z"></path></g><g><path class="st0" d="M356.7,57.9c0,0,0,.1,0,.4,0,.4,0,1.1-.1,1.4,0,.1,0,.2-.1.2,0,.6.1.6,0,1.1v.4c-.4-.1-.4-.4-.7-.7v.6c-.3,0-.4.2-.4.4.4.3.5.6.4,1,0,.7-1.2,1.6-1.3,2q-.1,0-.1.1c0,0,.2.4,0,.7-.2.6-.8,1.4-.9,1.9h-.3c.1,0-1.5,1.4-1.6,2.3,0,.1,0,.2,0,.4,0,.2-.1.6-.3.6-.4,0-.2-.2-.4-.4-.1.6-.4.7-.7.7v-.3c-.1,0-.3,0-.4,0-.6,0-.6-.8-.9-1.2v.4c-.1.5,0,.7,0,1.2-.1.7-.5.3-.6.7,0,0,0,.2,0,.3h.1c.3,0,0,1,.4,1v-.3c0-.1.1-.2.4-.1.1,0,.2.1.1.3v.5c-.2.2-.4.3-.4.4,0,.2.4.3.3.4,0,.2-.3.4-.7.3h0v.4c-.1.4-.3.7-.6,1-.2-.1-.3-.3-.3-.4,0-.3.5-.4.6-1.1-.8,0-1,1.2-1.6,1.9l.4.5c0-.3.5-.6.7-.5.1,0,.3.1.3.2-.2.1-1.6,2.2-1.6,2.2-.1,0-.3-.4-.5-.4s-.6.6-.7,1.1c.3.4.9.7,1.2,1.1-.2.3-.3.3-.4.3-.4,0-.9-.5-1.3-.7.2.2.2.4.1.9h.1c.3.3.4.3.4.3,0,0,0,.3-.1.4v.2c0,.4-.5.5-.9.4-.2,0-.5-.2-.4-.7v-.2h.4v-.2c0-.4,0-.7-.4-.7h-.3c0,0,0,.1,0,.1,0-.1-.7,1.7-1,1.8v.5c0,.4,0,.5,0,.7,0,.4-.7.3-1.3.3v.4c-.1.7-.9.6-.9.7,0,.1.2.2.4.3.3.1.4,0,.5-.1.2,0,.4.3.3.7,0,.7-.4.1-1,1.1l-.6,1.1c-.7,1.1-2.8,3.3-2.8,3.7,0,.2.1,0,0,.3,0,0-2,2.4-2.9,3.2v.2c0,.4-.8,0-.9.7.1,0,.1.2,0,.3,0,.6-.7.7-1,1.5-.1,0-.1,0-.1-.3,0,0-1.2,2.5-1.3,2.8-.3-.4-.4-.6-.6-.6-.4,0-.8.5-1.3,1v.7c0,0,0,0,0,0,0,0,.1,0,0,.2-.1.7-.7.6-.8,1.1h-.2c-.4.4-2.6,3.9-4.4,3.6h-.1l-.4.4c0-.2-2.7-1.6-2.7-3.2s0-.2.4-.2c-.6-.6-1.6-.9-1.6-1.8s0-.4.2-.7c-.4,0-.5-.4-.5-.8s.5-.5.5-.9-.1-.7-.1-1c0-.7.6-.4.6-.7,0-.4-.4-.9-.4-1.1v-1.3c.1-.5.4-1.1.4-1.9v-2c0,0,0-.1,0-.2,0-.4,0-1.1.2-1.3h.4c.1,0,.1-.2.1-.4v-.4c0-1.2,1-2.2,1-2.9v-.7c0-.4,0-.9.3-1.3h.2c.5-.7,1-1.8,1-3.2v-.4c.5,0,.9-.9.9-1.3s-.1-.2-.2-.2c0,0-.1,0-.1.1-.4,0-.5-.7-.6-.7,0,0-.6.5-.6,1.1s0,0,.2,0v.6c-.1-.1-.2-.2-.4-.2-.4,0-.4,1-.8,1.1,0,0,.1,0,.1.2h0c0,0,.5,0,.5,0,0,.2-.4.7-.7.7s-.3,0-.3-.3c-.2.2-.3.5-.5.9-.5,0-.3-.6-.7-.6h-.2v-.3h-.1c-.2,0-.3,0-.3.3.2,0,.2.2.4.2v.4c0,.3-.6,1.6-1,1.6s-.1-.1-.1-.4h-.5c0,.4.1.6.3.6-.5,1.3-1.5,0-1.7,1.8h-.7v.3c-.2.6-.2,1.3-1,1.3h0c-.1,0-2.3.7-2.3,2.1.1.1.2.2.2.4,0,.7-1.1.5-1.1,1.1-.2-.1-.4-.4-.8-.4v.9c0,.4-.2.7-.6.7v.4c0,.4-.5.9-.5,1.4-.2-.2-.7-.2-.8-.5,0-.1,0-.2,0-.2,0,0-.5.3-.5.3,0,.1.1.2.1.4v.2c-.2-.4-1.7,2.5-2.7,2.5v.4c0,.7-.8,1.2-1.2,1.2s-.8.4-1.1,0c-.2,0-.1.4-.2.6.1,0,.4.4.4.5,0,.2-.3.6-.6.6s-.2,0-.3-.2v-.2c-.4.2-1,.4-1,1v.2c0,.2,0,.3-.1.5h-.2c-.2,0-.4.4-.7.6h0c-.2.2-.3.3-.4.3s-.4,0-.4-.3c-.4,0-.4.5-.7.7h-.2c-.5,0-.7,1.7-1.2,1.7s-.2-.6-.4-.6c-.2,0-.6,1.3-.6,1.3-.1,0-.4-.2-.5-.2s-.2,0-.3.2v.2c0,.4-.1.7-.5.7h-.1c-.5,0-1,1.4-2.4,1.4s-.5-.2-.7-.5h-.3c0,0-.1,0-.3,0-.7,0,.1-2-.5-1.4v-1.1c-.1,0-.4-.3-.4-.4s.1-.2.2-.2c-.4-.7-.5-1.2-.5-1.6s0-.4.3-.5v-.6c0-.2,0-.4,0-.7,0-1.9,2.9-7.1,2.7-7.1.2,0,.4,0,.4.4v-1.6c.4,0,.4.5.8.7.3,0,.4-.1.5-.4-.2-.5-1.1,0-1.1-.7s.9,0,.9-.5.5.4.4-1c.3-.1.6-.4,1-.6,0-.2-.2-.3-.2-.4,0-.2-.4-.4,0-1.1l1.3-.3h-.3c-.2,0-.2-.2-.5-.2.1-.2.4-.9.6-.9s.2,0,.2.2l.2-.7c0-.2.4-.4.4-.6s-.2-.5-.2-.7c0-.2.1-.2.5-.2v.2c0,0,.2,0,.3,0s.1,0,.5,0v-.5c-.2,0-.4-.4-.4-.6,0-.4.1-.9.4-.9h.1l.4-1.4c.3-1,1.7-2.9,2-3.6v-.4c0,0,1.6-2.4,1.6-2.4l1-1.6h.2v-.2c0-.4.1-.5.2-1v-.2c0,.2,1-2,1.4-3.9.6-1.1.4-2.7.4-4.3s-.2-3-1.3-3.6c.8,0,1.6,0,2.4.3,1,.8,3,2,3,4.2-.2.3-.4.5-.4.7,0,.2.1.3.1.4s0,.2-.1.4v.2c.1,0,.1.2.1.3,0,.6-.3,1.4-.7,1.4h-.1v.3c0,0,.1.2.1.4,0,1.3-.5,1.7-1,2.6h-.1v.2c.1,0,.1.2.1.4s0,.7-.4.7c-.2,1.5-1.2,2.9-1.9,4h0c.1,0-.3.4-.3.6s-.4,1.1-.7,1.3,0,0,0-.2v.4c-.3.5-1,.7-1.8,2.7,0,.2-.2.6-.2.8,0,1-.9,1.2-1,1.6,0,0,.2.3.2.5s-.1.4-.2.4h-.2c-1,0-1.3,3-1.7,3h0c0,.4-1.3.7-1.5,1.8,0,.7.1.9.1,1.3s0,.2-.1.3c-.2,0-.2-.3-.4-.3,0,0-1.3.7-1.3.9l.5.7c.4.4-.6.3-.6.9v.2c-.1-.2-.2-.4-.2-.6l.2-.3c-.4,0-.7.5-.7.4,0,.2.4.9.4,1.2s0,.1,0,.1c-.3,0-.4-.2-.7-.2h-.1v.5c.3.1.5.4.5.9h-.5c-.1,0,0,.1-.1.4l-.5.5c-.5.5.3.9,0,.9h-.2c-.6,0-.5.2-.8.8-.4.9-.5,1.8-.4,1.8l-.6,1.3h0c0,.1,0,1.4,0,1.4.2-.2,2.7-1.9,2.7-2.4v-.4c.4-.5,1.1-1.5,1.9-1.5s.3.1.3.2c.3,0,.4-.2.4-.3,0-.1,0-.2,0-.4s0-.2.1-.4c.1.4.4.4.5.4h.4c.2,0,.4,0,.6.4.2,0,.4-.3.4-.7,0,0,0-.2-.1-.2s-.2.2-.3.2-.1,0-.3-.2c0-.4.1-.5.2-.5.1,0,.4.2.5.2.2,0,.2-.1.2-.6l1.4-1.2c0-.3.2-.3.2-.7s0-.5-.2-.5c0-.4.2-.4.4-.4h.1c.2,0,.4-.8.9-.8h.3v-.3c0-.2.2-.2.4-.2h1.3c.4-.7,1-.6,1-1.3v-.3c-.4,0-.4.2-.6.2,0,0-.1,0-.4-.2.4-.6.6-1.3,1.3-1.3h.1c.3.2.4.6.4.9,1,0,1.3-2.4,1.9-2.4,0,0,0,0,0,.1,0,0,0-.1,0-.1,0-.2,0-.4,0-.7,0-.7,0-1,.5-1s.2.4.4.5c.5,0,.5-.7,1-.9h.5c.4-.2,1,0,1.1-.5,0-.2,2.2-4.2,5.5-4.9.2-.2.7-.1.7-.6v-.3c.6-1.3,1.9-3,2.9-3l.2-.4c.2-1.1,1.3-1.6,1.6-3,0,.4,1.9.4,1.9,1,0,.2,0,.2.1.2.1,0,.2,0,.4-.2,0,0,.1,0,.1.3s0,.6,0,.7c0,.6.7.6,1,.8,0,0-.3.5-.3.9s.5,0,.5.7-.3,1.5-.5,1.7c.1,0-1.6,1.6-1.6,3.2.2,0,.3-.2.3-.2h0c0,.2-.7,3.6-1.5,3.6,0,.2.1.4.1.4,0,0-1.7,3.9-1.7,5.8s0,.3,0,.4v1.3c0,.2,0,.4-.2.4h-.2c-.1.3-.5,1.1-.5,1.6s.5.4.5,1.1v1.5h-.2c0,.2.7,3,1,3s1.3-1.3,1.6-1.5c.1,0,.4,0,.5-.2,0,0-.2,0-.2,0,0-.1.1-.1.1-.2h.1c.2.1.4,0,.4-.4v-.2c-.4,0-.2-.4-.4-.6.8-.2.8-1.6,1.3-1.6s.2,0,.3.2v.3h.2c.2,0,.8-.7.9-.4h.1c.3-.3.3-.6.3-.7,0-.3-.1-.4-.4-1,0-.2.2-.3.5-.3v-.4c0-.4,0-.7.4-.7.1.2.1.7.3.7,0-.2.5-1.9,1-2.1,0,.4,0,.9-.3,1.2.6,0,.5-.5.7-.6l.2.3v-1.2h.8s0,0,0-.1v-.4c.1-.4.2-1.1.7-1.1v-.4c0,0,0-.2,0-.2.1,0,.1.1.3.2.3-.5.7-.9,1-1.2,0-.4-.4-.1-.4-.4s.9-.5,1-.6c-.5,0,1.9-1,2.1-1.8,0-.4-.3-.9-.2-1.3.1-.3.4-.4.7-.9.1.3-.2.9.2,1.6v.4h.2c0-.2,0-.2.2-.4v-.2c0-.3.7-.6.7-.8,0-.2-.5-.4-.4-1.2,0-.3.3-.6.6-.6h.2c0,0,.1,0,.1,0,0,0-.4-.3-.3-.7.1-.4.8-1,1.1-1,.2,0,.2.2.2.3,0,.1,0,.4-.2.5h-.2l-.2,1.1c0,.2.1.2.1.2.2,0,1.1-.4,1.3-1.5v-.5c0,.2-.1.1-.1.1-.2,0-.4-.1-.4-.4.2-.2,1.2-2.4,1.5-2.3,0,0,0,.2,0,.7v.7s1-1.1,1.1-1.3v-.2c-.1,0-.1-.4,0-.7,0-.7.5-1.5.7-1.4q0,0,.1.1c0,0,1.4-.8,1.6-1.5h-.3c0-.7.4-.6.5-1.2v-.3c.7-1,1.6-1.3,1.9-1.5v-.4h-.5c0,0,0-.1,0-.1,0-.4.9-1.7,1.2-2.5v-.3c0-.2,0-.4,0-.9.1,0,1,0,1.3-.7h.2c.4-.5.9-.7,1-1.6-.3,0-.4-.1-.4-.4.1,0,.3-.7.4-.9v-.7c0-.2.2-.4.5-.4h.1c0-.5.4-.7.4-1.1,0,0,0-.3-.1-.5.1-.1.2-.2.4-.2h.1c0,0,.2-1.4.2-1.4,0-.4,0-.7,0-1.3.4.2.4,1,.8,1h.2c-.1-.2-.3-.5-.1-.9.2-.6.1-1.7.1-2.1.4-.3,1-.4,1-.1,0,.4-.4,1.9-.6,2.3.2,0,.5-.3.5-.6,0-.4,0-.8,0-1.1,0-.1.1-.4.3-.4.2-.1.6-.1.7,0,.4,0,.4.1.5.4ZM298.3,86.9v.2c0,.3,0,.3.3.3h.1c.5,0,.5-.7,1-.9.4,0,.4-.2.4-.3,0-.2-.1-.4-.4-.6h-.2c0,.4-.7,1.3-.9,1.5,0-.1,0-.2-.2-.2h0ZM302.9,77.1c0,.2,0,.3.1.3s1.5-1.8,1.7-2.4c-.1-.1,0-.1-.2-.1-.4,0-.9,1.1-1.2,1.8-.2,0-.4.3-.4.5ZM333.3,92.4c0-.1,0-.2-.2-.4,0,.4-.3.2-.3.6s0,.3.3.3c0,0,.2-.3.2-.5ZM339.9,81.4c.1-.2.4-.2.4-.6.1,0,.1.4.5.4-.2.2-.4.2-.4.5-.1,0-.1-.4-.4-.4ZM342.2,85.2c-.1.2-.4.2-.4.6-.1-.1-.1-.4-.4-.4,0-.2.3-.2.3-.5.1,0,.1.3.4.3ZM343.5,82.9c0,.2-.3.2-.3.6-.1,0-.1-.4-.5-.4.1-.1.4-.1.4-.4.1,0,.1.3.4.3ZM350,72c0,.2-.1.4-.2.4-.2,0-.4-.2-.4-.4s0-.2.2-.2c.2,0,.3.3.4.3ZM349.7,67.7s-.2-.2,0-.6v-.3h.1c.1,0,.2,0,.2,0,0,.4-.3.9-.4.9-.1,0,0,0,0,0Z"></path><path class="st0" d="M364.1,99.2c.2,0,.4.1.4.2-.4.7-1.1,1.3-1.8,1.7h-.2c-.4,0-2.2,1.2-2.9,1.9v.3c0,.4-.6,1.1-1.1,1.1s-.4-.3-.6-.3c-1.2,0-.2,1.6-1.8,1.6h-.3c-.4,0-1.1,1-1.3,1.4h-.5c-1.1,0-1.3,1-2.2,1.1h-.8c-.2.2-.5.3-.9.3-1.6,0-3.6-1.1-4-1.9,0,.2,0,.2-.3.2,0,0-3.1-2.2-3.1-4.2s0-.4,0-.5h.4v-.7c0,0-.2,0-.2,0-1.3,0-.8-.8-1.8-.8,0-.7.5-.9.7-1.3.3.1.4.2.4.4,0,.2-.1.3-.2.4.7-.2,1.2-.9,1.2-2h.4v-.2c-.2,0-.2-.2-.2-.4,0-.4.7-1,.7-1.6s0-.4-.1-.4c-.7,0-.3,1.3-1.1,1.3,0,0,0-.1-.2-.1.1.1.2.4.2.9,0,.7-.5.7-.5.9s0,.2.2.2c-.2.3-.4.4-.4.4-.2,0-.4-.4-.4-1.1,0-1.6,1-1.8,1-2.4-.1-.3-.1-.5-.1-.7,0-.9.4-1.2,1-2.2.2.1.3.2.3.4,0,.4-.7,1.2-.7,1.9.3-.1.4-.5.7-.7v-.5c.2-.4.6-.4.7-.8,0-.2-.4-.4-.4-.7,0,0,2.2-2.3,2.4-3,0,0,0-.1,0-.1,0,0,.3-.4.5-.4h.4v-.7c.4-.8,1.3-1.3,1.9-1.3h.2c.9-.3,1.6-.7,2.2-1.2v-.2c.9-.4,2-.8,3.1-.8s3.9,1.3,3.9,2.4-.7.5-.7,1,1.1.4,1.1,1.3,0,.3-.4.4c.1.2.2.4.4.5,0,.1,0,.1,0,.1-.1,0-.2-.1-.4-.1,0,.7-.3.7-.4,1.1,0,.2.1.5.1.7,0,.3-.2.4-.8.4h-.2c0,.2.1.3.1.5,0,0-3.3,3.3-4.3,3.3h-.4c-.4,0-.6-.2-.9-.4-.8,0-.1.9-1.5.9s-.7,0-.7-.3,0-.1,0-.2c-1.1-.1-2.4-.8-3.3-.8s-.2,0-.2.2.1.4.1.4c0,.6-.7.2-.7.7s0,.9,0,1.3c0,1.6-.7,3.3-.7,5.2s.3,2.2,1.4,2.4h5c.5-.4,1.3-.6,2.2-.6,2.1-.4,4.1-2.1,5.9-2.5,2.2-.3.8-1.1,4.2-2.9h.2ZM347.5,92.5c-.1.2,1.6.4,2.2.2,5.6-1.3,5.6-3.4,6-4.3l.2-1c-.4-.4-.9-1-1.6-1s-.7,0-.9.2h-.7c0-.1-.1-.2-.2-.2-.2,0-.7.2-.7.5,0,.4.5.4.5.8-.2.2-.7,0-.9.5h-.4c-.5,0-.7.4-1.2.6-.6.4-1.2.8-1.7,1.5,0,0,.1,0,.2,0,.1,0,.2,0,.1.2l-1,2ZM348.9,90.3c0-.4.7-1.3,1.2-1.3s.2,0,.2.1c-.2.5-.7.5-1,1.2-.2,0-.4,0-.4,0q0,0,0,0Z"></path><path class="st0" d="M401,87.1c0,.2,0,.4-.4.4,0,.2.2.2.4.2h.2v.4c-.3,0,0,.6-.6.6v.6c0,0-.1.1-.3.1,0,0,0,0,0,0h-.2v.2c0,.2.1.5.4.5,0,1.4-1.2,1.6-1.2,3v.3c-.1.4-1,.1-1,.7s.4.2.4.4-.4.3-.4.5h0c0,.1-.2.1-.2.1-.2,0-.1.4-.1.6q.2,0,.2.2c-.2.3-.4.9-.6,1.2h.2c.2,0,.4,0,.4,0h-.4c-.2.3-.1.6-.5.6h0c0,.4-.4.4-.4.4s.3,0,.3.3h-.1c0,.6,0,.8-.3,1h0c0,.2-.1.4-.1.4,0,0,0,.1.2.1s.2-.1.2-.1c0,0,.2.1.2.4s-.2.5-.3.5v.3c0,.2-.4.2-.4.3.3.4-.1.7,0,1.2v1.1c0,.8,0,1.3,0,1.7,0,.4,0,.6-.1.8,0,.3.2.3.3.4l.2.4c.4.2.4.7.7,1l.7.7c0,.3,0,.2-.3.2h-.4c-.4.1-.4,0-.7-.1h-.1c-.1,0-.2,0-.2-.1s0,0,0-.1,0-.2-.2-.2l-.4-.2c-.5-.4-.6-.7-1.2-1.3s-.3-.4-.1-.4c-.1-.9-.7-.8-.7-1.3s.3-.7.3-.8c0-.2-.2-.2-.4-.8,0-.2,0-.4.3-.5-.1-.1-.2-.4-.2-.8s0-1.5,0-2.4c0-.4.1-.7,0-1l.4-2.8c-.4,0-.5,1-.9,1l-.7,1.4c0,.5-.5.7-.9.7.1.1,0,.3,0,.6s-.2.3-.7.5h-.1c-.2.2-.6.9-.8.9,0,0,0,0,0-.1q0,0,0,0h-.2c0-.1-.7,1.1-.7,1.1h-.2v.2c0,.2-.2.4-.2.6l-.4.2h0c.2.8-.8.4-1.2.7.1.2.2.2.2.4,0-.2-.9,1-1.2,1.1h-.4v.3c0,.2,0,.3-.1.3s-.2-.1-.2-.4c-.7.2.4,1.1-1.5,1.1s-.4-.1-.4-.2h-.6c-.2,0-.2-.4-.4-.4-.4.1,0,.7-.7.7v-.6h-.2c.2,0-1-.5-1.2-1,0,0,0,0,.1-.1v-.2c-.9-.3-1.5-1.1-1.5-1.8s.1-.7.6-.7c-.1-.1-.1-.3-.1-.4,0-1.3.8-3.3,2.1-3.6,0-.4-.3-.9.4-1.4,0-.2-.1-.3-.4-.3.4-.5.4-1.1,1.3-1.1,0-.7,3.6-5,4.7-5.4-.2.4,1.9-2.7,2.9-2.7l1.1-.2c.2-.1.4-.5.5-.9v-.2c0,0,.9-.1.9-.1h0c.1,0,.5.1.7.4,0,0,0-.3,0-.3l.6-.3c.1,0,0-.2.2-.3h.6c0,.3.4.2.6.6v.3c.4.3.5.7.9.7h.2l.4-.5c.1,0,0-.1.1-.3l.7-1.5c0-.1.3-.7.1-1.3,1,.1,1.1.3,1.9.4v.2h.4c.5,0,1,.2,1,.7.1.6.2,1.2.3,1.6l-.2.4-.7.2ZM396.7,88.6c0-.1-.1-.5-.6-.7l-.7.4-1,1h-.2c-.7,0-.3.7-.9.7h-.1c-.7,0-.6.5-1.1.5h-.1c-.1.2,0,.7-.6.7h-.2v.3c-1.1.7-2.4,2.2-3.6,3.7-.7,0,0,.7-.5.7h-.1c-1.3.3-1.3,1.4-1.3,2.1h-1c0-.1,0,.2-.2.2-.2.1-.3,0-.3,0s-.7-.4-.7-.5c0-.2,0-.3-.4-.4,0,.8,0,.7.6,1.7.1.3.6.1.8.4-.3,0-.5.2-.4.4h-.2c0,.4,0,.7.3.7,0,.2-.2.3-.2.5h-.2c-.4.6-.6,1-.6,1.4s0,.6.4,1c.5-.2.7,0,1.3-.5.4-.4,3.5-2.6,3.5-2.8l.4-.7c0,0,.1.1.3.1.3,0,.6-.7.6-1,.1,0,.1,0,.1-.2v-.2c.9-.2.7-1.1,1.2-1.1h0c0,.2-.4,1-.4,1.5s0,.4.3.4c0-.1,0-.3,0-.4s0,0,0,0c.1,0,.1,0,.3,0s0,0,0,0c0-.1-.2-.4-.3-1h.4v-.5c0,0,.1,0,.1,0,.3,0,.2-.7.6-.7h.2l.5-.9s0-.1,0-.2c.1,0,.2,0,.2,0,.1,0,.2,0,.2-.2v-.2c0-.2,1.3-1.6,1.3-1.9,0,0,0,0-.2,0,0-.2.2-.2.4-.4-.4,0,2-1.6,2-3.9ZM390.2,101.2c0-.1,0-.3-.1-.3s0,.1.1.3ZM394,95.4c0-.2.2-.4.2-.7s0-.1-.2-.1c-.2,0-.3.2-.3.4s0,.4.2.4h0Z"></path><path class="st0" d="M424.6,91c0,.1,0,.3.1.4,0,.2-.4.8-.7,1,0,0,0-.3-.1-.4-.2.6-1,1.3-1.5,1.6-.3,0-.4-.1-.5-.3.2-1.6.4-2.3.5-3.9,0-.2,0-.7.2-1.1-1.2.7-2.7,1.7-3.6,2.2l-1.7,1.2c-1.6,1.1-2.2,1.8-3.8,2.9-1,1.5-.5.5-2.3,2.5-.9,2.4-2.8,2.7-3.4,5.4-.2.8-.8,1.2-1.9,3.9,0-1-.1-1.3-.4-1.3-.5.2-1.4,2.4-2.5,2.4s-.2,0-.3-1.9c0-1,.4-2.2.4-2.9s.7-.8,1.3-1.9h0c1-1.4.6-2.1.8-3,0-.2,0-.4-.1-.5.5-2.4,1.7-4.1,2.1-5.3l.6-1.9c.5-1.7.6-2.5.6-3.6,0-.9.1-1.7-.4-2.3,0-.4,0-.4.3-.4s.6,0,1,.1h.2c.8,0,.6.4,1.2.6h.4c.3,0,.4,1.1.5,2.2.1-.3.4-.4.4-.4,0,0,0,.1,0,.2,0,.7-.2,1.3-.2,1.5v.9c0,.5-.2.7-.2,1.2-.2,1.5-.7,1.1-1,2-.2.6-.6,1.3-.9,1.8-.4.7-1.5,2.8-1.5,3.5s.2.4.3.4c0-.9,3-3.6,3.6-4.5.4-.4.6,0,.8-.6,0,0,.2,0,.2-.2s.2-.4.6-.7c.9-.7,1.4-1,2.5-1.3h.5c.1-.5.7-1.1,1.6-1.4.2,0,.5-.7.7-.7.3,0,.4,0,.5-.3h0c.1,0,.7,0,1.3-.3l.5-.2c.5-.3.9-.4,1.3-.4,0-.4.3-.8.5-1.2.4.3,1,.1,1.9.1,1.3,2.3.2,2.7-.7,4.7ZM403.4,101.6l-.2.5h-.4l.3-.8.4.3ZM404.1,100.7l-.3.8v-.9c0,0,0-.9,0-.9l.3-.5.6-.7v.9c0,0-.1.5-.1.5l-.4.7ZM419.7,88.3h0c0,0,0,0,0,0ZM423.6,92.9c0,0,.4-.1.4-.1-.1.5-.6,1-1,1.1,0-.3.5-.7.5-1Z"></path><path class="st0" d="M448.2,99.2c.2,0,.4.1.4.2-.4.7-1.1,1.3-1.8,1.7h-.2c-.4,0-2.2,1.2-2.9,1.9v.3c0,.4-.6,1.1-1.1,1.1s-.4-.3-.6-.3c-1.2,0-.2,1.6-1.8,1.6h-.3c-.4,0-1.1,1-1.3,1.4h-.5c-1.1,0-1.3,1-2.2,1.1h-.8c-.2.2-.5.3-.9.3-1.6,0-3.6-1.1-4-1.9,0,.2,0,.2-.3.2,0,0-3.1-2.2-3.1-4.2s0-.4,0-.5h.4v-.7c0,0-.2,0-.2,0-1.3,0-.8-.8-1.8-.8,0-.7.5-.9.7-1.3.3.1.4.2.4.4,0,.2-.1.3-.2.4.7-.2,1.2-.9,1.2-2h.4v-.2c-.2,0-.2-.2-.2-.4,0-.4.7-1,.7-1.6s0-.4-.1-.4c-.7,0-.3,1.3-1.1,1.3,0,0,0-.1-.2-.1.1.1.2.4.2.9,0,.7-.5.7-.5.9s0,.2.2.2c-.2.3-.4.4-.4.4-.2,0-.4-.4-.4-1.1,0-1.6,1-1.8,1-2.4-.1-.3-.1-.5-.1-.7,0-.9.4-1.2,1-2.2.2.1.3.2.3.4,0,.4-.7,1.2-.7,1.9.3-.1.4-.5.7-.7v-.5c.2-.4.6-.4.7-.8,0-.2-.4-.4-.4-.7,0,0,2.2-2.3,2.4-3,0,0,0-.1,0-.1,0,0,.3-.4.5-.4h.4v-.7c.4-.8,1.3-1.3,1.9-1.3h.2c.9-.3,1.6-.7,2.2-1.2v-.2c.9-.4,2-.8,3.1-.8s3.9,1.3,3.9,2.4-.7.5-.7,1,1.1.4,1.1,1.3,0,.3-.4.4c.1.2.2.4.4.5,0,.1,0,.1,0,.1-.1,0-.2-.1-.4-.1,0,.7-.3.7-.4,1.1,0,.2.1.5.1.7,0,.3-.2.4-.8.4h-.2c0,.2.1.3.1.5,0,0-3.3,3.3-4.3,3.3h-.4c-.4,0-.6-.2-.9-.4-.8,0-.1.9-1.5.9s-.7,0-.7-.3,0-.1,0-.2c-1.1-.1-2.4-.8-3.3-.8s-.2,0-.2.2.1.4.1.4c0,.6-.7.2-.7.7s0,.9,0,1.3c0,1.6-.7,3.3-.7,5.2s.3,2.2,1.4,2.4h5c.5-.4,1.3-.6,2.2-.6,2.1-.4,4.1-2.1,5.9-2.5,2.2-.3.8-1.1,4.2-2.9h.2ZM431.5,92.5c-.1.2,1.6.4,2.2.2,5.6-1.3,5.6-3.4,6-4.3l.2-1c-.4-.4-.9-1-1.6-1s-.7,0-.9.2h-.7c0-.1-.1-.2-.2-.2-.2,0-.7.2-.7.5,0,.4.5.4.5.8-.2.2-.7,0-.9.5h-.4c-.5,0-.7.4-1.2.6-.6.4-1.2.8-1.7,1.5,0,0,.1,0,.2,0,.1,0,.2,0,.1.2l-1,2ZM432.9,90.3c0-.4.7-1.3,1.2-1.3s.2,0,.2.1c-.2.5-.7.5-1,1.2-.2,0-.4,0-.4,0q0,0,0,0Z"></path></g></g><g><path class="st0" d="M223.7,359.3c-.3.2-.6.3-1,.5,0,0,0,.4,0,.5.4.8,1.3,2.2,2,3.2.7.8,1.3,1.2,1.8,1.4.2,0,.4.2.4.4,0,.5-.6.6-1.1.6-1.5,0-3-.2-4.3-1.9-.7-.9-1.2-1.8-1.7-2.7-.3-.5-.6-.6-.9-.6s-.2.2-.2.3c0,1.5,0,2,0,2.6,0,.7.2.7,1,1.1.3.2.6.4.6.5s-.4.5-.7.5c-.5,0-1.9,0-2.6,0s-1.5,0-2.2,0-.7-.2-.7-.4.3-.5.6-.6c.8-.2,1-.4,1-1.3,0-.7,0-1,0-4.4s0-2.5,0-2.8c0-.4-.2-.8-.9-.9-.4,0-.6-.4-.6-.5,0-.3.4-.5.8-.5,1,0,1.3,0,1.5,0,1.3,0,2.3-.1,3.6-.1s2.5.4,3,.7c.8.6,1.2,1.4,1.2,2.4s-.4,1.5-.9,2ZM219.4,355.3c0,0-.4,0-.5.2,0,0-.1.1-.1.3,0,.5,0,2.3,0,3.6s0,.3.2.3c.3.1.5.2.8.2s1.1-.4,1.2-.5.5-.7.5-1.7-.8-2.4-2.2-2.4Z"></path><path class="st0" d="M233,363.9c0,0,.2-.1.3-.7,0-.6,0-2.8,0-3.6s-.1-.5-.3-.6c-.2,0-.6-.2-.8-.3-.2,0-.3-.3-.3-.4,0-.2.3-.5.7-.5,1,0,1.9,0,2.9,0s.3.2.3.5c0,.8,0,4.7,0,5.5,0,.6.2.7.3.7s.8,0,1,0c.1,0,.2.2.2.3,0,.6-.2.8-.5.8-.5,0-1.6.1-2,.2-.5.1-.8.2-1.2.2s-.4-.2-.4-.5,0-.4,0-.6c0,0-.1-.2-.2-.1-.7.6-1.7,1.2-2.9,1.2s-1.3-.3-1.7-.7c-.2-.2-.4-.8-.4-1.1s0-1,0-4.3-.1-.6-.6-.9c-.2-.1-.5-.4-.5-.6s.4-.4.7-.4,2.7,0,2.9,0,.2.2.2.6c0,.9,0,3.6,0,4.5,0,.7.2,1,.4,1.1.2.1.4.2.8.2s.8-.2,1-.3Z"></path><path class="st0" d="M244.8,358.2c.2.2.3.6.3.7,0,.7-.4,1.3-.9,1.3s-.5-.2-.7-.5c-.5-.5-1.1-1-1.7-1s-.8.3-.9.4c-.2.2-.5.7-.5,1.8,0,1.9,1.2,3,2.6,3s1.4-.3,1.9-.7c0,0,.4,0,.4.3s-.3.7-.5,1c-.6.8-1.7,1.3-2.9,1.3s-1.9-.3-2.7-.9c-.5-.4-1.2-1.5-1.2-2.9s1-3,2.1-3.6c1-.6,2-.8,2.6-.8,1.3,0,2.1.4,2.3.6Z"></path><path class="st0" d="M252.8,357.8c.8,0,1.9-.2,2.3-.2s.6.3.6.4c0,.2-.4.4-.6.5-.7.2-1,.4-1.5.7-.4.3-1.1.8-1.5,1.1,0,0,0,.2,0,.2.8,1.3,1.8,2.9,2.1,3.3.4.4.6.8,1.2,1,.4.2.6.2.6.4s-.3.4-.8.4-1.9,0-2.9,0h-.9c-.4,0-.5-.2-.5-.4s.1-.3.4-.5c.2-.1.1-.3,0-.4-.2-.5-.5-.9-.9-1.6-.3-.5-.5-.8-.6-.8s-.1,0-.2,0c0,0,0,.2,0,.2,0,.7,0,1.1,0,1.6,0,.9.2.9.6,1,.2,0,.5.2.5.4,0,.2-.3.5-.7.5s-1.2,0-1.6,0-1.6,0-2,0-.6-.2-.6-.4.1-.3.6-.5c.5-.2.5-.4.6-.9,0-.3,0-1.1,0-5.3s0-2.7,0-3c0-.4,0-.4-.7-.9-.2-.1-.3-.2-.3-.4s.2-.5.4-.5c.4-.1,1.8-.3,2.4-.5.3-.1.5-.2.6-.2s.2.3.2.5c0,.6-.1,3.4-.1,4.5s0,1.6,0,2.2c0,.6.1.9.2.9s.3-.1.5-.3c.6-.4,1-.8,1.5-1.5.3-.4.4-.5-.2-.7-.4-.1-.6-.2-.6-.4,0-.3.4-.5.6-.5h.9Z"></path><path class="st0" d="M257.5,358.6c.4-.2,1.7-.6,2.4-1,.1,0,.2-.1.3-.1.2,0,.4.2.4.2v.7c0,.2,0,.2.2.1.3-.2,1.3-.9,2.4-.9s1.8.6,2.1,1c0,0,.2,0,.3,0,.6-.4.9-.6,1.3-.8.4-.2.8-.3,1.3-.3,1.8,0,2.6,1.3,2.7,3,0,1.2.1,3,.1,3.5s.2.6.6.7c.2,0,.6.2.6.5s-.4.4-.7.4-1.3,0-1.7,0-1.3,0-1.7,0-.6-.3-.6-.4.1-.3.5-.5c.4-.2.5-.3.5-.9,0-.9,0-2.2,0-2.9s0-1.2-.3-1.4c-.2-.2-.5-.4-1.1-.4s-.8.1-.9.2c0,0-.2.2-.2.4,0,1,0,3.6,0,4.1,0,.4.2.7.5.9.4.1.6.3.6.5s-.3.4-.6.4c-.5,0-1.5,0-2,0s-1,0-1.4,0-.7-.2-.7-.4.3-.4.6-.5c.4-.1.4-.2.5-1v-3.2c0-.5,0-.7-.2-.9-.3-.3-.7-.5-1.3-.5s-.6,0-.8.2c0,0-.2.3-.2.4,0,3.3,0,3.6,0,4.1,0,.5,0,.6.4.8.4.2.6.3.6.6s-.2.4-.5.4c-.5,0-1.5,0-2,0s-1.3,0-1.7,0-.7-.2-.7-.4.2-.4.6-.5c.5-.2.7-.4.7-1,0-.7,0-2,0-3.7s0-.2-.3-.5c-.4-.3-.5-.5-.5-.5,0-.3.2-.5.3-.6Z"></path><path class="st0" d="M279.1,358.7c.4.4.6,1.3.6,1.6,0,.7,0,1.1,0,3.2s.3.8.6.8.4,0,.6-.1c0,0,.1.2.1.2,0,.3-.2.8-.3.9-.5.6-1,.7-1.7.7s-1.4-.2-1.8-1.2c0,0-.2,0-.2,0-.3.2-.6.5-1.1.8-.3.2-.8.3-1.1.3-.7,0-2.1-.6-2.1-2.4s.2-.8.3-1c.2-.2.7-.4.8-.5,1.3-.3,2.5-.6,3.1-.9.1,0,.3-.3.3-.3v-.8c0,0,0-.2,0-.3-.2-.5-.7-.9-1.2-.9s-.5.2-.6.3c0,.2-.1.7-.2,1.2,0,.1-.2.3-.2.4s-.4.2-.5.2c-.5,0-1.2,0-1.4-.2,0,0-.2-.3-.2-.4,0-.5.9-1.2,1.7-1.7.7-.5,1.7-.8,2.3-.8s1.6.3,2.3,1ZM276.9,363.9c0,0,.1-.2.1-.5v-1.1c0,0,0-.1,0-.1-.4,0-1,.2-1.3.4-.4.2-.5.5-.5.8,0,.6.5.9.9.9s.6,0,.9-.3Z"></path><path class="st0" d="M282.2,358.2c.4-.1,1.6-.4,2-.6.2-.1.6-.2.7-.2,0,0,.3.2.3.3s0,.6,0,.8,0,.1.2,0c.6-.4,1.5-1,2.7-1s1.7.9,1.8,1c.3.4.6,1.3.6,2.7s0,1.6,0,2.4c0,.8,0,.9.6,1.1.3.2.5.4.5.5,0,.4-.4.4-.7.4s-1.3,0-1.8,0-1.3,0-1.5,0c-.5,0-.7-.2-.7-.4s0-.3.4-.4c.4-.2.5-.4.6-.9,0-.9,0-1.7,0-2.5,0-1.4-.1-1.7-.3-1.9-.2-.2-.6-.4-.9-.4s-.8,0-1,.2c0,0-.2.2-.2.4v4.1c0,.4,0,.6.5.8.5.2.5.4.5.5,0,.3-.3.5-.7.5-.6,0-1.2,0-1.7,0s-1.8,0-2.1,0c-.4,0-.6-.1-.6-.3s.2-.4.4-.5c.9-.4.9-.4,1-1.1,0-.8,0-2.2,0-3.7s0-.4-.6-.9c-.2-.2-.3-.3-.3-.4,0-.1.2-.5.5-.6Z"></path><path class="st0" d="M293,358.4c1-.3,2.6-.8,2.9-.8s.2.3.2.7v3.2c0,2.5,0,2.4,0,2.6,0,.4.2.6.7.7.3,0,.6.3.6.5s-.2.4-.7.4-1.4,0-1.9,0c-1,0-1.9,0-2.1,0s-.7,0-.7-.4.4-.5.5-.5c.8-.3.9-.4.9-1.1,0-.4,0-1.9,0-3s0-.8,0-1c0,0,0-.2-.5-.6-.1,0-.3-.3-.3-.5s.2-.4.3-.4ZM295.7,354.1c.3.4.5.9.5,1.1,0,1.1-1,1.5-1.5,1.5s-.9-.2-1.2-.6c-.2-.2-.2-.4-.2-.8,0-.9.6-1.5,1.6-1.5s.6.2.9.4Z"></path><path class="st0" d="M303.9,357.8c0,0,.3,0,.3.2,0,.2,0,.6,0,.7s-.1.5-.5.5c-.7,0-1.4,0-1.8,0s-.2.2-.2.3v3.1c0,.7,0,1,.3,1.3.3.3.5.3.8.3s.5,0,.8-.1c.2,0,.3-.1.4-.1s.2.2.2.3c0,.3,0,.6-.8,1.1-.5.4-1.5.6-2,.6-.7,0-1.7-.2-2.2-1-.2-.2-.3-.7-.3-1.3,0-1.3,0-2.3,0-4.1s0-.2-.5-.4c-.3,0-.5-.5-.5-.6s.2-.3.4-.4c.5-.3,1.4-1,1.9-1.5.2-.2.9-.5,1-.5s.3.2.3.4v1.1c0,0,0,.2.2.2.2,0,1.5,0,1.9,0Z"></path><path class="st0" d="M312,359c.2.4.4.9.4,1.4s-.3.7-.6.7-3.4,0-3.8,0-.3,0-.4.2c0,0,0,.2,0,.2,0,1.4,1,2.4,2.6,2.4s1.4-.3,1.9-.6c.1,0,.3.1.3.2,0,.5-.3.8-.4.9-.9.9-2,1.3-3.1,1.3-2.4,0-3.9-1.7-3.9-4.1s1-3,2-3.6c.5-.3,1.4-.6,2.2-.6s2.2.5,2.7,1.4ZM307.8,360c0,0,0,.3,0,.3.2,0,.5,0,1.1,0s1.2,0,1.2-.7-.2-1.1-1-1.1-1.3.8-1.3,1.5Z"></path><path class="st0" d="M318.6,359c0,.9-.7,1.7-1.6,1.7s-1.6-.7-1.6-1.6.9-1.7,1.6-1.7,1.6.9,1.6,1.6ZM318.6,364.2c0,.8-.6,1.7-1.6,1.7s-1.6-.7-1.6-1.7,1-1.6,1.7-1.6c1.1,0,1.6.9,1.6,1.7Z"></path><path class="st0" d="M330.9,358.7c.4.4.6,1.3.6,1.6,0,.7,0,1.1,0,3.2s.3.8.6.8.4,0,.6-.1c0,0,.1.2.1.2,0,.3-.2.8-.3.9-.5.6-1,.7-1.7.7s-1.4-.2-1.8-1.2c0,0-.2,0-.2,0-.3.2-.6.5-1.1.8-.3.2-.8.3-1.1.3-.7,0-2.1-.6-2.1-2.4s.2-.8.3-1c.2-.2.7-.4.8-.5,1.3-.3,2.5-.6,3.1-.9.1,0,.3-.3.3-.3v-.8c0,0,0-.2,0-.3-.2-.5-.7-.9-1.2-.9s-.5.2-.6.3c0,.2-.1.7-.2,1.2,0,.1-.2.3-.2.4s-.4.2-.5.2c-.5,0-1.2,0-1.4-.2,0,0-.2-.3-.2-.4,0-.5.9-1.2,1.7-1.7.7-.5,1.7-.8,2.3-.8s1.6.3,2.3,1ZM328.7,363.9c0,0,.1-.2.1-.5v-1.1c0,0,0-.1,0-.1-.4,0-.9.2-1.3.4-.4.2-.5.5-.5.8,0,.6.5.9.9.9s.6,0,.9-.3Z"></path><path class="st0" d="M338.1,358.2c.4-.1,1.6-.4,2-.6.2-.1.6-.2.7-.2,0,0,.3.2.3.3s0,.6,0,.8,0,.1.2,0c.6-.4,1.5-1,2.7-1s1.7.9,1.8,1c.3.4.6,1.3.6,2.7s0,1.6,0,2.4c0,.8,0,.9.6,1.1.3.2.5.4.5.5,0,.4-.4.4-.7.4s-1.3,0-1.8,0-1.3,0-1.5,0c-.5,0-.7-.2-.7-.4s0-.3.4-.4c.4-.2.5-.4.6-.9,0-.9,0-1.7,0-2.5,0-1.4-.1-1.7-.3-1.9-.2-.2-.6-.4-.9-.4s-.8,0-1,.2c0,0-.2.2-.2.4v4.1c0,.4,0,.6.5.8.5.2.5.4.5.5,0,.3-.3.5-.7.5-.6,0-1.2,0-1.7,0s-1.8,0-2.1,0c-.4,0-.6-.1-.6-.3s.2-.4.4-.5c.9-.4.9-.4,1-1.1,0-.8,0-2.2,0-3.7s0-.4-.6-.9c-.2-.2-.3-.3-.3-.4,0-.1.2-.5.5-.6Z"></path><path class="st0" d="M354.7,358.7c.4.4.6,1.3.6,1.6,0,.7,0,1.1,0,3.2s.3.8.6.8.4,0,.6-.1c0,0,.1.2.1.2,0,.3-.2.8-.3.9-.5.6-1,.7-1.7.7s-1.4-.2-1.8-1.2c0,0-.2,0-.2,0-.3.2-.6.5-1.1.8-.3.2-.8.3-1.1.3-.7,0-2.1-.6-2.1-2.4s.2-.8.3-1c.2-.2.7-.4.8-.5,1.3-.3,2.5-.6,3.1-.9.1,0,.3-.3.3-.3v-.8c0,0,0-.2,0-.3-.2-.5-.7-.9-1.2-.9s-.5.2-.6.3c0,.2-.1.7-.2,1.2,0,.1-.2.3-.2.4s-.4.2-.5.2c-.5,0-1.2,0-1.4-.2,0,0-.2-.3-.2-.4,0-.5.9-1.2,1.7-1.7.7-.5,1.7-.8,2.3-.8s1.6.3,2.3,1ZM352.5,363.9c0,0,.1-.2.1-.5v-1.1c0,0,0-.1,0-.1-.4,0-.9.2-1.3.4-.4.2-.5.5-.5.8,0,.6.5.9.9.9s.6,0,.9-.3Z"></path><path class="st0" d="M357.8,358.6c.4-.2,1.7-.6,2.4-1,.1,0,.2-.1.3-.1.2,0,.4.2.4.2v.7c0,.2,0,.2.2.1.3-.2,1.3-.9,2.4-.9s1.8.6,2.1,1c0,0,.2,0,.3,0,.6-.4.9-.6,1.3-.8.4-.2.8-.3,1.3-.3,1.8,0,2.6,1.3,2.7,3,0,1.2.1,3,.1,3.5s.2.6.6.7c.2,0,.6.2.6.5s-.4.4-.7.4-1.3,0-1.7,0-1.3,0-1.7,0-.6-.3-.6-.4.1-.3.5-.5c.4-.2.5-.3.5-.9,0-.9,0-2.2,0-2.9s0-1.2-.3-1.4c-.2-.2-.5-.4-1.1-.4s-.8.1-.9.2c0,0-.2.2-.2.4,0,1,0,3.6,0,4.1,0,.4.2.7.5.9.4.1.6.3.6.5s-.3.4-.6.4c-.5,0-1.5,0-2,0s-1,0-1.4,0-.7-.2-.7-.4.3-.4.6-.5c.4-.1.4-.2.5-1v-3.2c0-.5,0-.7-.2-.9-.3-.3-.7-.5-1.3-.5s-.6,0-.8.2c0,0-.2.3-.2.4,0,3.3,0,3.6,0,4.1,0,.5,0,.6.4.8.4.2.6.3.6.6s-.2.4-.5.4c-.5,0-1.5,0-2,0s-1.3,0-1.7,0-.7-.2-.7-.4.2-.4.6-.5c.5-.2.7-.4.7-1,0-.7,0-2,0-3.7s0-.2-.3-.5c-.4-.3-.5-.5-.5-.5,0-.3.2-.5.3-.6Z"></path><path class="st0" d="M380,359c.2.4.4.9.4,1.4s-.3.7-.6.7-3.4,0-3.8,0-.3,0-.4.2c0,0,0,.2,0,.2,0,1.4,1,2.4,2.6,2.4s1.4-.3,1.9-.6c.1,0,.3.1.3.2,0,.5-.3.8-.4.9-.9.9-2,1.3-3.1,1.3-2.4,0-3.9-1.7-3.9-4.1s1-3,2-3.6c.5-.3,1.4-.6,2.2-.6s2.2.5,2.7,1.4ZM375.8,360c0,0,0,.3,0,.3.2,0,.5,0,1.1,0s1.2,0,1.2-.7-.2-1.1-1-1.1-1.3.8-1.3,1.5Z"></path><path class="st0" d="M395.2,358.5c0,0-.8.6-1.1.7,0,0,0,.2,0,.3,1.2.4,2.4,1.3,2.4,2.9s-1.4,2.8-2.5,3.2c-.8.3-2.3.4-2.8.4-1.2,0-2.3,0-3.1-.1-.6,0-2,0-2.3,0s-.7-.1-.7-.4.2-.5.7-.6c.9-.2,1.1-.5,1.2-1,0-.3.1-1.4.1-3.7s0-3.4,0-3.8c0-.7-.1-.9-1.2-1.1-.2,0-.6-.3-.6-.5s.5-.4.7-.4h1.8c.7,0,2.5-.1,3.8-.1s2.6.4,3.1.8c.7.5,1,1.2,1,2s-.2,1.1-.6,1.5ZM391.1,360.1c-.2,0-.5,0-.7.1,0,0-.2.3-.2.4,0,.5,0,2.6.1,3.1,0,.5.7,1.1,1.3,1.1s1.4-.8,1.5-1.1c.1-.4.2-.9.2-1.3,0-1.7-1.3-2.4-2.3-2.4ZM390.9,355.2c0,0-.5,0-.5,0,0,0-.1,0-.1.3,0,1.3,0,3,0,3.3,0,.2.2.3.6.3.6,0,1.5-.3,1.7-.4s.5-.6.5-1.5-1-2.1-2.1-2.1Z"></path><path class="st0" d="M398.7,358.4c1-.3,2.6-.8,2.9-.8s.2.3.2.7v3.2c0,2.5,0,2.4,0,2.6,0,.4.2.6.7.7.3,0,.6.3.6.5s-.2.4-.7.4-1.4,0-1.9,0c-1,0-1.9,0-2.1,0s-.7,0-.7-.4.4-.5.5-.5c.8-.3.9-.4.9-1.1,0-.4,0-1.9,0-3s0-.8,0-1c0,0,0-.2-.5-.6-.1,0-.3-.3-.3-.5s.2-.4.3-.4ZM401.4,354.1c.3.4.5.9.5,1.1,0,1.1-1,1.5-1.5,1.5s-.9-.2-1.2-.6c-.2-.2-.2-.4-.2-.8,0-.9.6-1.5,1.6-1.5s.6.2.9.4Z"></path><path class="st0" d="M411.3,365c-1,.7-2.2,1-3.1,1s-2.4-.2-2.9-.4c0,0-.4,0-.5,0s-.3-.2-.3-.3.1-5.3.1-7.6,0-1.8,0-2c0-.4-.5-.6-.8-.7-.2-.2-.3-.2-.3-.3s.3-.5.5-.6c.5-.1,1.7-.4,2.4-.7.3-.1.5-.1.6-.1s.3.4.3.6c0,.9-.1,2-.1,4.1s.1.2.2.2c.6-.3,1.3-.5,1.8-.5.7,0,1.7.2,2.6.9,1,.9,1.2,2.1,1.2,2.9,0,1.2-.7,2.7-1.8,3.4ZM408.2,359c-.2,0-.4,0-.5.1,0,0-.2.3-.2.3,0,.2-.1,1.7-.1,3.1s.2,1.1.2,1.3c0,.2.7,1,1.4,1s.6-.3.7-.4c.1-.2.6-1.1.6-2.4s-.9-3.1-2.2-3.1Z"></path><path class="st0" d="M414.8,354c.5-.1,1.5-.4,2.1-.6.4-.2.6-.2.8-.2s.3.5.3.8c0,1.5,0,6.5,0,8.2s0,1.2,0,1.6c0,.5.1.9.7,1.1.4.2.5.4.5.6s-.2.3-.6.3c-.8,0-1.4,0-1.9,0-.7,0-1.5,0-2.3,0s-.6-.2-.6-.3.2-.4.6-.6c.6-.2.7-.5.8-.9,0-.3,0-1.5,0-1.9,0-2.6,0-6,0-6.6,0-.2,0-.4-.5-.6-.3-.2-.5-.3-.5-.4,0-.3.4-.5.5-.5Z"></path><path class="st0" d="M427.1,359c.2.4.4.9.4,1.4s-.3.7-.6.7-3.4,0-3.8,0-.3,0-.4.2c0,0,0,.2,0,.2,0,1.4,1,2.4,2.6,2.4s1.4-.3,1.9-.6c.1,0,.3.1.3.2,0,.5-.3.8-.4.9-.9.9-2,1.3-3.1,1.3-2.4,0-3.9-1.7-3.9-4.1s1-3,2-3.6c.5-.3,1.4-.6,2.2-.6s2.2.5,2.7,1.4ZM422.9,360c0,0,0,.3,0,.3.2,0,.5,0,1.1,0s1.2,0,1.2-.7-.2-1.1-1-1.1-1.3.8-1.3,1.5Z"></path><path class="st0" d="M439.8,358.2c.2.2.3.6.3.7,0,.7-.4,1.3-.9,1.3s-.5-.2-.7-.5c-.5-.5-1.1-1-1.7-1s-.8.3-.9.4c-.2.2-.5.7-.5,1.8,0,1.9,1.2,3,2.6,3s1.4-.3,1.9-.7c0,0,.4,0,.4.3s-.3.7-.5,1c-.6.8-1.7,1.3-2.9,1.3s-1.9-.3-2.7-.9c-.5-.4-1.2-1.5-1.2-2.9s1-3,2.1-3.6c1-.6,2-.8,2.6-.8,1.3,0,2.1.4,2.3.6Z"></path><path class="st0" d="M441.8,358.3c.6-.2,1.7-.5,2.1-.7.2-.1.4-.2.6-.2s.2.3.2.4c0,.3,0,.6,0,.9,0,0,.1.2.2,0,.6-.6,1.2-1.2,2-1.2s1.4.5,1.4.9-.5,1.1-.9,1.5c-.2.2-.4.3-.6.3s-.2,0-.4-.2c-.1-.1-.6-.5-.9-.5s-.4,0-.4,0c0,0-.2.2-.2.3,0,.2,0,3,0,3.6,0,.8.2,1,.9,1.2.3,0,.7.3.7.5s-.5.4-.7.4c-.6,0-1.8,0-2.4,0s-1.1,0-1.6,0-.7-.1-.7-.4.2-.4.6-.6c.6-.2.6-.3.7-1.5,0-1.1,0-2.1,0-3.1s0-.3-.4-.6c-.3-.2-.5-.5-.5-.6,0-.3.3-.6.4-.6Z"></path><path class="st0" d="M449.3,358.4c1-.3,2.6-.8,2.9-.8s.2.3.2.7v3.2c0,2.5,0,2.4,0,2.6,0,.4.2.6.7.7.3,0,.6.3.6.5s-.2.4-.7.4-1.4,0-1.9,0c-1,0-1.9,0-2.1,0s-.7,0-.7-.4.4-.5.5-.5c.8-.3.9-.4.9-1.1,0-.4,0-1.9,0-3s0-.8,0-1c0,0,0-.2-.5-.6-.1,0-.3-.3-.3-.5s.2-.4.3-.4ZM452,354.1c.3.4.5.9.5,1.1,0,1.1-1,1.5-1.5,1.5s-.9-.2-1.2-.6c-.2-.2-.2-.4-.2-.8,0-.9.6-1.5,1.6-1.5s.6.2.9.4Z"></path><path class="st0" d="M460.2,357.8c0,0,.3,0,.3.2,0,.2,0,.6,0,.7s-.1.5-.5.5c-.7,0-1.4,0-1.8,0s-.2.2-.2.3v3.1c0,.7,0,1,.3,1.3.3.3.5.3.8.3s.5,0,.8-.1c.2,0,.3-.1.4-.1s.2.2.2.3c0,.3,0,.6-.8,1.1-.5.4-1.5.6-2,.6-.7,0-1.7-.2-2.2-1-.2-.2-.3-.7-.3-1.3,0-1.3,0-2.3,0-4.1s0-.2-.5-.4c-.3,0-.5-.5-.5-.6s.2-.3.4-.4c.5-.3,1.4-1,1.9-1.5.2-.2.9-.5,1-.5s.3.2.3.4v1.1c0,0,0,.2.2.2.2,0,1.5,0,1.9,0Z"></path><path class="st0" d="M462,358.4c1-.3,2.6-.8,2.9-.8s.2.3.2.7v3.2c0,2.5,0,2.4,0,2.6,0,.4.2.6.7.7.3,0,.6.3.6.5s-.2.4-.7.4-1.4,0-1.9,0c-1,0-1.9,0-2.1,0s-.7,0-.7-.4.4-.5.5-.5c.8-.3.9-.4.9-1.1,0-.4,0-1.9,0-3s0-.8,0-1c0,0,0-.2-.5-.6-.1,0-.3-.3-.3-.5s.2-.4.3-.4ZM464.7,354.1c.3.4.5.9.5,1.1,0,1.1-1,1.5-1.5,1.5s-.9-.2-1.2-.6c-.2-.2-.2-.4-.2-.8,0-.9.6-1.5,1.6-1.5s.6.2.9.4Z"></path><path class="st0" d="M474.3,358.2c.2.2.3.6.3.7,0,.7-.4,1.3-.9,1.3s-.5-.2-.7-.5c-.5-.5-1.1-1-1.7-1s-.8.3-.9.4c-.2.2-.5.7-.5,1.8,0,1.9,1.2,3,2.6,3s1.4-.3,1.9-.7c0,0,.4,0,.4.3s-.3.7-.5,1c-.6.8-1.7,1.3-2.9,1.3s-1.9-.3-2.7-.9c-.5-.4-1.2-1.5-1.2-2.9s1-3,2.1-3.6c1-.6,2-.8,2.6-.8,1.3,0,2.1.4,2.3.6Z"></path><path class="st0" d="M480.3,357.8c.2,0,.6.1.8.2.1,0,.4.4.4.5,0,.3,0,.7,0,1.1s-.2.6-.3.6-.4,0-.7-.5c-.5-.7-1-1.1-1.5-1.1s-.7.3-.7.8.2.8,1.7,1.5c1.4.7,2,1.5,2,2.5s-.9,1.9-1.7,2.2c-.6.3-1.4.4-1.9.4-1.3,0-1.9-.3-2.2-.5-.2-.2-.4-1.5-.4-1.8s.2-.5.4-.5.4.1.7.5c.6.9,1.4,1.3,2,1.3s.7-.4.7-.7-.3-.6-.7-.9c-.4-.3-.7-.5-1.2-.8-.7-.5-1.6-1.2-1.6-2.3s.7-1.8,1.3-2.2c.5-.3,1.4-.5,1.8-.5s1,0,1.3.1Z"></path><path class="st0" d="M494,358.2c.2.2.3.6.3.7,0,.7-.4,1.3-.9,1.3s-.5-.2-.7-.5c-.5-.5-1.1-1-1.7-1s-.8.3-.9.4c-.2.2-.5.7-.5,1.8,0,1.9,1.2,3,2.6,3s1.4-.3,1.9-.7c0,0,.4,0,.4.3s-.3.7-.5,1c-.6.8-1.7,1.3-2.9,1.3s-1.9-.3-2.7-.9c-.5-.4-1.2-1.5-1.2-2.9s1-3,2.1-3.6c1-.6,2-.8,2.6-.8,1.3,0,2.1.4,2.3.6Z"></path><path class="st0" d="M502,358.7c.4.4.6,1.3.6,1.6,0,.7,0,1.1,0,3.2s.3.8.6.8.4,0,.6-.1c0,0,.1.2.1.2,0,.3-.2.8-.3.9-.5.6-1,.7-1.7.7s-1.4-.2-1.8-1.2c0,0-.2,0-.2,0-.3.2-.6.5-1.1.8-.3.2-.8.3-1.1.3-.7,0-2.1-.6-2.1-2.4s.2-.8.3-1c.2-.2.7-.4.8-.5,1.3-.3,2.5-.6,3.1-.9.1,0,.3-.3.3-.3v-.8c0,0,0-.2,0-.3-.2-.5-.7-.9-1.2-.9s-.5.2-.6.3c0,.2-.1.7-.2,1.2,0,.1-.2.3-.2.4s-.4.2-.5.2c-.5,0-1.2,0-1.4-.2,0,0-.2-.3-.2-.4,0-.5.9-1.2,1.7-1.7.7-.5,1.7-.8,2.3-.8s1.6.3,2.3,1ZM499.9,363.9c0,0,.1-.2.1-.5v-1.1c0,0,0-.1,0-.1-.4,0-1,.2-1.3.4-.4.2-.5.5-.5.8,0,.6.5.9.9.9s.6,0,.9-.3Z"></path><path class="st0" d="M505.1,354c.5-.1,1.5-.4,2.1-.6.4-.2.6-.2.8-.2s.3.5.3.8c0,1.5,0,6.5,0,8.2s0,1.2,0,1.6c0,.5.1.9.7,1.1.4.2.5.4.5.6s-.2.3-.6.3c-.8,0-1.4,0-1.9,0-.7,0-1.5,0-2.3,0s-.6-.2-.6-.3.2-.4.6-.6c.6-.2.7-.5.8-.9,0-.3,0-1.5,0-1.9,0-2.6,0-6,0-6.6,0-.2,0-.4-.5-.6-.3-.2-.5-.3-.5-.4,0-.3.4-.5.5-.5Z"></path><path class="st0" d="M510.9,354c.5-.1,1.5-.4,2.1-.6.4-.2.6-.2.8-.2s.3.5.3.8c0,1.5,0,6.5,0,8.2s0,1.2,0,1.6c0,.5.1.9.7,1.1.4.2.5.4.5.6s-.2.3-.6.3c-.8,0-1.4,0-1.9,0-.7,0-1.5,0-2.3,0s-.6-.2-.6-.3.2-.4.6-.6c.6-.2.7-.5.8-.9,0-.3,0-1.5,0-1.9,0-2.6,0-6,0-6.6,0-.2,0-.4-.5-.6-.3-.2-.5-.3-.5-.4,0-.3.4-.5.5-.5Z"></path><path class="st0" d="M242.6,381.5c.4.4.6,1.3.6,1.6,0,.7,0,1.1,0,3.2s.3.8.6.8.4,0,.6-.1c0,0,.1.2.1.2,0,.3-.2.8-.3.9-.5.6-1,.7-1.7.7s-1.4-.2-1.8-1.2c0,0-.2,0-.2,0-.3.2-.6.5-1.1.8-.3.2-.8.3-1.1.3-.7,0-2.1-.6-2.1-2.4s.2-.8.3-1c.2-.2.7-.4.8-.5,1.3-.3,2.5-.6,3.1-.9.1,0,.3-.3.3-.3v-.8c0,0,0-.2,0-.3-.2-.5-.7-.9-1.2-.9s-.5.2-.6.3c0,.2-.1.7-.2,1.2,0,.1-.2.3-.2.4s-.4.2-.5.2c-.5,0-1.2,0-1.4-.2,0,0-.2-.3-.2-.4,0-.5.9-1.2,1.7-1.7.7-.5,1.7-.8,2.3-.8s1.6.3,2.3,1ZM240.4,386.7c0,0,.1-.2.1-.5v-1.1c0,0,0-.1,0-.1-.4,0-1,.2-1.3.4-.4.2-.5.5-.5.8,0,.6.5.9.9.9s.6,0,.9-.3Z"></path><path class="st0" d="M245.7,381c.4-.1,1.6-.4,2-.6.2-.1.6-.2.7-.2,0,0,.3.2.3.3s0,.6,0,.8,0,.1.2,0c.6-.4,1.5-1,2.7-1s1.7.9,1.8,1c.3.4.6,1.3.6,2.7s0,1.6,0,2.4c0,.8,0,.9.6,1.1.3.2.5.4.5.5,0,.4-.4.4-.7.4s-1.3,0-1.8,0-1.3,0-1.5,0c-.5,0-.7-.2-.7-.4s0-.3.4-.4c.4-.2.5-.4.6-.9,0-.9,0-1.7,0-2.5,0-1.4-.1-1.7-.3-1.9-.2-.2-.6-.4-.9-.4s-.8,0-1,.2c0,0-.2.2-.2.4v4.1c0,.4,0,.6.5.8.5.2.5.4.5.5,0,.3-.3.5-.7.5-.6,0-1.2,0-1.7,0s-1.8,0-2.1,0c-.4,0-.6-.1-.6-.3s.2-.4.4-.5c.9-.4.9-.4,1-1.1,0-.8,0-2.2,0-3.7s0-.4-.6-.9c-.2-.2-.3-.3-.3-.4,0-.1.2-.5.5-.6Z"></path><path class="st0" d="M255.4,380.6c.5,0,2,0,2.6,0s1,0,1.3,0,.5.1.5.4-.2.4-.5.5c-.2,0-.3.2-.1.7.5,1.2.9,2.3,1.3,3,0,.1.2,0,.2,0,.2-.5,1-2.7,1.1-2.9.2-.5,0-.7-.5-.8-.3,0-.5-.3-.5-.5s.3-.3.6-.3c.4,0,.7,0,1,0s1,0,1.5,0,.5.2.5.4-.2.4-.5.5c-.4,0-.7.3-1,.9-.3.6-1.9,4.4-2.2,5.2-.9,2.4-1.3,3.6-1.6,4.4,0,.2-.6.8-1.3.8s-1.2-.8-1.2-1.3.5-1.2,1.1-1.2h.6c.2,0,.3-.2.4-.4,0-.2.2-.4.2-.7,0-.3.1-.5.1-.6s-.2-.6-.3-.8c-.5-1.3-2-4.7-2.5-5.7-.2-.4-.5-.5-.9-.7-.3-.1-.5-.3-.5-.5,0,0,.2-.3.6-.3Z"></path><path class="st0" d="M273.4,384.5c0,1.6-.6,2.5-1.3,3.1-.7.6-1.8,1.2-3.2,1.2s-2.5-.4-3.3-1.2c-.8-.8-1.1-2.1-1.1-2.9,0-1.5.7-2.5,1.6-3.1.8-.6,2.2-1,3-1,2.8,0,4.4,2.1,4.4,4ZM267.8,381.9c-.3.5-.6,1.4-.6,2.3,0,1.9.7,2.9.9,3.1.1.1.5.4.9.4s.6-.2.8-.5c.1-.2.5-.9.5-2.4s-.7-3.4-1.7-3.4-.7.2-.8.4Z"></path><path class="st0" d="M275.4,381c.4-.1,1.6-.4,2-.6.2-.1.6-.2.7-.2,0,0,.3.2.3.3s0,.6,0,.8,0,.1.2,0c.6-.4,1.5-1,2.7-1s1.7.9,1.8,1c.3.4.6,1.3.6,2.7s0,1.6,0,2.4c0,.8,0,.9.6,1.1.3.2.5.4.5.5,0,.4-.4.4-.7.4s-1.3,0-1.8,0-1.3,0-1.5,0c-.5,0-.7-.2-.7-.4s0-.3.4-.4c.4-.2.5-.4.6-.9,0-.9,0-1.7,0-2.5,0-1.4-.1-1.7-.3-1.9-.2-.2-.6-.4-.9-.4s-.8,0-1,.2c0,0-.2.2-.2.4v4.1c0,.4,0,.6.5.8.5.2.5.4.5.5,0,.3-.3.5-.7.5-.6,0-1.2,0-1.7,0s-1.8,0-2.1,0c-.4,0-.6-.1-.6-.3s.2-.4.4-.5c.9-.4.9-.4,1-1.1,0-.8,0-2.2,0-3.7s0-.4-.6-.9c-.2-.2-.3-.3-.3-.4,0-.1.2-.5.5-.6Z"></path><path class="st0" d="M292.6,381.8c.2.4.4.9.4,1.4s-.3.7-.6.7-3.4,0-3.8,0-.3,0-.4.2c0,0,0,.2,0,.2,0,1.4,1,2.4,2.6,2.4s1.4-.3,1.9-.6c.1,0,.3.1.3.2,0,.5-.3.8-.4.9-.9.9-2,1.3-3.1,1.3-2.4,0-3.9-1.7-3.9-4.1s1-3,2-3.6c.5-.3,1.4-.6,2.2-.6s2.2.5,2.7,1.4ZM288.4,382.8c0,0,0,.3,0,.3.2,0,.5,0,1.1,0s1.2,0,1.2-.7-.2-1.1-1-1.1-1.3.8-1.3,1.5Z"></path><path class="st0" d="M301.6,380.6c.4,0,.6.2.6.4s-.2.4-.5.5c-.3.1-.3.3-.2.7.2.7.5,1.4,1.1,2.9,0,.2.1.2.2,0,.4-.9.5-1,.8-1.9,0-.2,0-.5,0-.6s-.1-.5-.2-.7c-.2-.4-.2-.4-.5-.5-.2,0-.7-.2-.7-.5s.4-.4.7-.4c.5,0,1.3,0,1.7,0s1.2,0,1.6,0,.6.2.6.3c0,.2-.1.4-.6.6-.3,0-.4.2-.4.3s0,.1,0,.5c0,.3.7,1.7,1,2.6,0,.3.2.3.3,0,.2-.5,1.1-2.7,1.1-3s0-.3-.7-.6c-.3-.1-.5-.2-.5-.5s.4-.4.6-.4c.3,0,.8,0,1.2,0s1,0,1.4,0,.6.2.6.4-.1.4-.5.5c-.4.2-.7.4-.9.7-.6,1.2-1.6,3.6-1.9,4.4-.3.9-.6,1.7-.7,1.9,0,.2-.3.3-.5.3-.3,0-.6-.3-.7-.5,0,0-.3-.8-.5-1.3-.2-.6-.8-2.1-1-2.6,0-.1-.2,0-.2,0-.4.9-1.2,2.5-1.5,3.5-.3.8-.7.9-.8.9s-.5-.2-.6-.5c-.1-.4-.3-.8-.4-1.1-.3-.8-1.6-4-1.9-4.7-.2-.5-.6-.9-.9-1-.3-.1-.6-.3-.6-.5s.3-.4.7-.4,1.4,0,1.8,0,1.2,0,1.8,0Z"></path><path class="st0" d="M319,381.3c.4.5.7,1.3.7,2.5,0,.6,0,2.8,0,3.1,0,.4,0,.6.6.8.3,0,.5.3.5.5,0,.3-.4.4-.6.4-.5,0-1.4,0-1.9,0s-1.2,0-1.7,0-.6-.3-.6-.5.2-.3.5-.4c.3,0,.5-.2.5-1s0-2.3,0-3.2c0-.6-.2-.9-.4-1.2-.2-.3-.8-.4-1-.4-.5,0-.9.2-1,.3,0,0-.1.4-.1.5,0,.4,0,3.7,0,4.1,0,.4,0,.6.5.8.3.2.5.4.5.4,0,.2-.2.5-.6.5s-1.1,0-1.6,0-1.9,0-2.2,0-.6-.2-.6-.4.2-.4.5-.5c.8-.2.8-.5.8-.6,0-.4.1-2.1.1-5.3s0-2.6,0-3.1c0-.1-.1-.4-.2-.5-.4-.3-.8-.6-.8-.8s.3-.5.4-.5c.5-.2,1.7-.6,2.2-.7.3,0,.6-.1.7-.1s.3.2.3.7v4.4c0,0,0,.2.1.1.4-.2.6-.4,1.1-.5.1,0,.8-.2,1.1-.2,1.1,0,1.7.4,2.1.8Z"></path><path class="st0" d="M330.8,384.5c0,1.6-.6,2.5-1.3,3.1-.7.6-1.8,1.2-3.2,1.2s-2.5-.4-3.3-1.2c-.8-.8-1.1-2.1-1.1-2.9,0-1.5.7-2.5,1.6-3.1.8-.6,2.2-1,3-1,2.8,0,4.4,2.1,4.4,4ZM325.3,381.9c-.3.5-.6,1.4-.6,2.3,0,1.9.7,2.9.9,3.1.1.1.5.4.9.4s.6-.2.8-.5c.1-.2.5-.9.5-2.4s-.7-3.4-1.7-3.4-.7.2-.8.4Z"></path><path class="st0" d="M342,380.5s.2-.2.2-.2c0-.1,0-1.4,0-1.8,0-.6,0-.8-.8-1-.2,0-.5-.2-.5-.3s.2-.5.5-.6c.7-.2,2.7-.6,3.3-.6s.3.5.3,1.1c0,1.2,0,3.4,0,4.9,0,3.8,0,3.6,0,4.2,0,.8.3,1,.5,1s.6,0,.8,0c0,0,.2.2.2.4,0,.3-.3.6-.5.7-1.1.2-2.9.6-3.2.6s-.3,0-.3-.2c0-.2,0-.5,0-.7,0,0-.1,0-.2,0-.7.5-1.7.9-2.3.9-1.9,0-3.5-1.6-3.5-3.8s1.1-3,2.1-3.6c.8-.5,2.1-.8,2.7-.8s.7,0,.9,0ZM339.8,381.9c-.5.5-.6,1.2-.6,2.4s.7,2.9,2.2,2.9.5-.2.6-.2c0,0,.2-.3.2-.5,0-1.2,0-2.2,0-3.5s-.1-.7-.2-.8c-.4-.6-1-.8-1.3-.8s-.6.2-.8.4Z"></path><path class="st0" d="M347.6,381.2c1-.3,2.6-.8,2.9-.8s.2.3.2.7v3.2c0,2.5,0,2.4,0,2.6,0,.4.2.6.7.7.3,0,.6.3.6.5s-.2.4-.7.4-1.4,0-1.9,0c-1,0-1.9,0-2.1,0s-.7,0-.7-.4.4-.5.5-.5c.8-.3.9-.4.9-1.1,0-.4,0-1.9,0-3s0-.8,0-1c0,0,0-.2-.5-.6-.1,0-.3-.3-.3-.5s.2-.4.3-.4ZM350.3,376.9c.3.4.5.9.5,1.1,0,1.1-1,1.5-1.5,1.5s-.9-.2-1.2-.6c-.2-.2-.2-.4-.2-.8,0-.9.6-1.5,1.6-1.5s.6.2.9.4Z"></path><path class="st0" d="M357.6,380.6c.2,0,.6.1.8.2.1,0,.4.4.4.5,0,.3,0,.7,0,1.1s-.2.6-.3.6-.4,0-.7-.5c-.5-.7-1-1.1-1.5-1.1s-.7.3-.7.8.2.8,1.7,1.5c1.4.7,2,1.5,2,2.5s-.9,1.9-1.7,2.2c-.6.3-1.4.4-1.9.4-1.3,0-1.9-.3-2.2-.5-.2-.2-.4-1.5-.4-1.8s.2-.5.4-.5.4.1.7.5c.6.9,1.4,1.3,2,1.3s.7-.4.7-.7-.3-.6-.7-.9c-.4-.3-.7-.5-1.2-.8-.7-.5-1.6-1.2-1.6-2.3s.7-1.8,1.3-2.2c.5-.3,1.4-.5,1.8-.5s1,0,1.3.1Z"></path><path class="st0" d="M367,381.5c.4.4.6,1.3.6,1.6,0,.7,0,1.1,0,3.2s.3.8.6.8.4,0,.6-.1c0,0,.1.2.1.2,0,.3-.2.8-.3.9-.5.6-1,.7-1.7.7s-1.4-.2-1.8-1.2c0,0-.2,0-.2,0-.3.2-.6.5-1.1.8-.3.2-.8.3-1.1.3-.7,0-2.1-.6-2.1-2.4s.2-.8.3-1c.2-.2.7-.4.8-.5,1.3-.3,2.5-.6,3.1-.9.1,0,.3-.3.3-.3v-.8c0,0,0-.2,0-.3-.2-.5-.7-.9-1.2-.9s-.5.2-.6.3c0,.2-.1.7-.2,1.2,0,.1-.2.3-.2.4s-.4.2-.5.2c-.5,0-1.2,0-1.4-.2,0,0-.2-.3-.2-.4,0-.5.9-1.2,1.7-1.7.7-.5,1.7-.8,2.3-.8s1.6.3,2.3,1ZM364.8,386.7c0,0,.1-.2.1-.5v-1.1c0,0,0-.1,0-.1-.4,0-.9.2-1.3.4-.4.2-.5.5-.5.8,0,.6.5.9.9.9s.6,0,.9-.3Z"></path><path class="st0" d="M375.2,380.7c.2,0,.6.1.8.1s1.7,0,1.8,0c.3,0,.4.7.4.9s-.2.4-.2.4c-.4,0-1,0-1.5-.1.2.3.3.8.3,1.2,0,.7-.3,1.3-1,1.9-.6.5-1.6.8-2.4.8s-.6,0-.7,0c0,0-.2,0-.2,0,0,0-.1.2-.1.3,0,.4.7.6.8.6.6,0,2.4,0,3,.1.3,0,.7.1,1.1.5.4.3.8,1,.8,1.7,0,1.3-1.1,2.4-1.8,2.8-1,.6-1.8.9-3.3.9s-3.6-.8-3.6-2.3.4-.9.6-1.1c.2-.1.7-.3.9-.4,0,0,0-.2,0-.2-.2,0-.3-.1-.5-.2-.5-.3-.7-.8-.7-1.5s0-.2.1-.2c.5-.2,1.3-.8,1.5-1,0,0,0-.2,0-.3-.8-.4-1.5-1.1-1.5-2.4s.5-1.6,1.1-2.1c.4-.3,1.5-.7,2.3-.7s1.6.2,1.9.3ZM375.5,391.4c.4-.3.6-.6.6-1,0-.6-.7-.9-1.1-1-.3,0-1.1-.1-1.9-.1s-1,0-1.1.2c-.2.2-.4.4-.4.7,0,1,1,1.7,2.5,1.7s1.1-.1,1.4-.3ZM372.3,383c0,1.3.6,2.1,1.3,2.1s.6-.2.6-.4c0-.1.3-1,.3-1.5,0-1.4-.7-1.9-1.1-1.9-.7,0-1.1.8-1.1,1.7Z"></path><path class="st0" d="M379.5,381.1c.6-.2,1.7-.5,2.1-.7.2-.1.4-.2.6-.2s.2.3.2.4c0,.3,0,.6,0,.9,0,0,.1.2.2,0,.6-.6,1.2-1.2,2-1.2s1.4.5,1.4.9-.5,1.1-.9,1.5c-.2.2-.4.3-.6.3s-.2,0-.4-.2c-.1-.1-.6-.5-.9-.5s-.4,0-.4,0c0,0-.2.2-.2.3,0,.2,0,3,0,3.6,0,.8.2,1,.9,1.2.3,0,.7.3.7.5s-.5.4-.7.4c-.6,0-1.8,0-2.4,0s-1.1,0-1.6,0-.7-.1-.7-.4.2-.4.6-.6c.6-.2.6-.3.7-1.5,0-1.1,0-2.1,0-3.1s0-.3-.4-.6c-.3-.2-.5-.5-.5-.6,0-.3.3-.6.4-.6Z"></path><path class="st0" d="M393.6,381.8c.2.4.4.9.4,1.4s-.3.7-.6.7-3.4,0-3.8,0-.3,0-.4.2c0,0,0,.2,0,.2,0,1.4,1,2.4,2.6,2.4s1.4-.3,1.9-.6c.1,0,.3.1.3.2,0,.5-.3.8-.4.9-.9.9-2,1.3-3.1,1.3-2.4,0-3.9-1.7-3.9-4.1s1-3,2-3.6c.5-.3,1.4-.6,2.2-.6s2.2.5,2.7,1.4ZM389.4,382.8c0,0,0,.3,0,.3.2,0,.5,0,1.1,0s1.2,0,1.2-.7-.2-1.1-1-1.1-1.3.8-1.3,1.5Z"></path><path class="st0" d="M402.3,381.8c.2.4.4.9.4,1.4s-.3.7-.6.7-3.4,0-3.8,0-.3,0-.4.2c0,0,0,.2,0,.2,0,1.4,1,2.4,2.6,2.4s1.4-.3,1.9-.6c.1,0,.3.1.3.2,0,.5-.3.8-.4.9-.9.9-2,1.3-3.1,1.3-2.4,0-3.9-1.7-3.9-4.1s1-3,2-3.6c.5-.3,1.4-.6,2.2-.6s2.2.5,2.7,1.4ZM398.1,382.8c0,0,0,.3,0,.3.2,0,.5,0,1.1,0s1.2,0,1.2-.7-.2-1.1-1-1.1-1.3.8-1.3,1.5Z"></path><path class="st0" d="M408.7,380.6c.2,0,.6.1.8.2.1,0,.4.4.4.5,0,.3,0,.7,0,1.1s-.2.6-.3.6-.4,0-.7-.5c-.5-.7-1-1.1-1.5-1.1s-.7.3-.7.8.2.8,1.7,1.5c1.4.7,2,1.5,2,2.5s-.9,1.9-1.7,2.2c-.6.3-1.4.4-1.9.4-1.3,0-1.9-.3-2.2-.5-.2-.2-.4-1.5-.4-1.8s.2-.5.4-.5.4.1.7.5c.6.9,1.4,1.3,2,1.3s.7-.4.7-.7-.3-.6-.7-.9c-.4-.3-.7-.5-1.2-.8-.7-.5-1.6-1.2-1.6-2.3s.7-1.8,1.3-2.2c.5-.3,1.4-.5,1.8-.5s1,0,1.3.1Z"></path><path class="st0" d="M418.6,380.6c.4,0,.6.2.6.4s-.2.4-.5.5c-.3.1-.3.3-.2.7.2.7.5,1.4,1.1,2.9,0,.2.1.2.2,0,.4-.9.5-1,.8-1.9,0-.2,0-.5,0-.6s-.1-.5-.2-.7c-.2-.4-.2-.4-.5-.5-.2,0-.7-.2-.7-.5s.4-.4.7-.4c.5,0,1.3,0,1.7,0s1.2,0,1.6,0,.6.2.6.3c0,.2-.1.4-.6.6-.3,0-.4.2-.4.3s0,.1,0,.5c0,.3.7,1.7,1,2.6,0,.3.2.3.3,0,.2-.5,1.1-2.7,1.1-3s0-.3-.7-.6c-.3-.1-.5-.2-.5-.5s.4-.4.6-.4c.3,0,.8,0,1.2,0s1,0,1.4,0,.6.2.6.4-.1.4-.5.5c-.4.2-.7.4-.9.7-.6,1.2-1.6,3.6-1.9,4.4-.3.9-.6,1.7-.7,1.9,0,.2-.3.3-.5.3-.3,0-.6-.3-.7-.5,0,0-.3-.8-.5-1.3-.2-.6-.8-2.1-1-2.6,0-.1-.2,0-.2,0-.4.9-1.2,2.5-1.5,3.5-.3.8-.7.9-.8.9s-.5-.2-.6-.5c-.1-.4-.3-.8-.4-1.1-.3-.8-1.6-4-1.9-4.7-.2-.5-.6-.9-.9-1-.3-.1-.6-.3-.6-.5s.3-.4.7-.4,1.4,0,1.8,0,1.2,0,1.8,0Z"></path><path class="st0" d="M428.7,381.2c1-.3,2.6-.8,2.9-.8s.2.3.2.7v3.2c0,2.5,0,2.4,0,2.6,0,.4.2.6.7.7.3,0,.6.3.6.5s-.2.4-.7.4-1.4,0-1.9,0c-1,0-1.9,0-2.1,0s-.7,0-.7-.4.4-.5.5-.5c.8-.3.9-.4.9-1.1,0-.4,0-1.9,0-3s0-.8,0-1c0,0,0-.2-.5-.6-.1,0-.3-.3-.3-.5s.2-.4.3-.4ZM431.4,376.9c.3.4.5.9.5,1.1,0,1.1-1,1.5-1.5,1.5s-.9-.2-1.2-.6c-.2-.2-.2-.4-.2-.8,0-.9.6-1.5,1.6-1.5s.6.2.9.4Z"></path><path class="st0" d="M439.6,380.6c0,0,.3,0,.3.2,0,.2,0,.6,0,.7s-.1.5-.5.5c-.7,0-1.4,0-1.8,0s-.2.2-.2.3v3.1c0,.7,0,1,.3,1.3.3.3.5.3.8.3s.5,0,.8-.1c.2,0,.3-.1.4-.1s.2.2.2.3c0,.3,0,.6-.8,1.1-.5.4-1.5.6-2,.6-.7,0-1.7-.2-2.2-1-.2-.2-.3-.7-.3-1.3,0-1.3,0-2.3,0-4.1s0-.2-.5-.4c-.3,0-.5-.5-.5-.6s.2-.3.4-.4c.5-.3,1.4-1,1.9-1.5.2-.2.9-.5,1-.5s.3.2.3.4v1.1c0,0,0,.2.2.2.2,0,1.5,0,1.9,0Z"></path><path class="st0" d="M448.7,381.3c.4.5.7,1.3.7,2.5,0,.6,0,2.8,0,3.1,0,.4,0,.6.6.8.3,0,.5.3.5.5,0,.3-.4.4-.6.4-.5,0-1.4,0-1.9,0s-1.2,0-1.7,0-.6-.3-.6-.5.2-.3.5-.4c.3,0,.5-.2.5-1s0-2.3,0-3.2c0-.6-.2-.9-.4-1.2-.2-.3-.8-.4-1-.4-.5,0-.9.2-1,.3,0,0-.1.4-.1.5,0,.4,0,3.7,0,4.1,0,.4,0,.6.5.8.3.2.5.4.5.4,0,.2-.2.5-.6.5s-1.1,0-1.6,0-1.9,0-2.2,0-.6-.2-.6-.4.2-.4.5-.5c.8-.2.8-.5.8-.6,0-.4.1-2.1.1-5.3s0-2.6,0-3.1c0-.1-.1-.4-.2-.5-.4-.3-.8-.6-.8-.8s.3-.5.4-.5c.5-.2,1.7-.6,2.2-.7.3,0,.6-.1.7-.1s.3.2.3.7v4.4c0,0,0,.2.1.1.4-.2.6-.4,1.1-.5.1,0,.8-.2,1.1-.2,1.1,0,1.7.4,2.1.8Z"></path><path class="st0" d="M461.4,380.6c0,0,.3,0,.3.2,0,.2,0,.6,0,.7s-.1.5-.5.5c-.7,0-1.4,0-1.8,0s-.2.2-.2.3v3.1c0,.7,0,1,.3,1.3.3.3.5.3.8.3s.5,0,.8-.1c.2,0,.3-.1.4-.1s.2.2.2.3c0,.3,0,.6-.8,1.1-.5.4-1.5.6-2,.6-.7,0-1.7-.2-2.2-1-.2-.2-.3-.7-.3-1.3,0-1.3,0-2.3,0-4.1s0-.2-.5-.4c-.3,0-.5-.5-.5-.6s.2-.3.4-.4c.5-.3,1.4-1,1.9-1.5.2-.2.9-.5,1-.5s.3.2.3.4v1.1c0,0,0,.2.2.2.2,0,1.5,0,1.9,0Z"></path><path class="st0" d="M470.5,381.3c.4.5.7,1.3.7,2.5,0,.6,0,2.8,0,3.1,0,.4,0,.6.6.8.3,0,.5.3.5.5,0,.3-.4.4-.6.4-.5,0-1.4,0-1.9,0s-1.2,0-1.7,0-.6-.3-.6-.5.2-.3.5-.4c.3,0,.5-.2.5-1s0-2.3,0-3.2c0-.6-.2-.9-.4-1.2-.2-.3-.8-.4-1-.4-.5,0-.9.2-1,.3,0,0-.1.4-.1.5,0,.4,0,3.7,0,4.1,0,.4,0,.6.5.8.3.2.5.4.5.4,0,.2-.2.5-.6.5s-1.1,0-1.6,0-1.9,0-2.2,0-.6-.2-.6-.4.2-.4.5-.5c.8-.2.8-.5.8-.6,0-.4.1-2.1.1-5.3s0-2.6,0-3.1c0-.1-.1-.4-.2-.5-.4-.3-.8-.6-.8-.8s.3-.5.4-.5c.5-.2,1.7-.6,2.2-.7.3,0,.6-.1.7-.1s.3.2.3.7v4.4c0,0,0,.2.1.1.4-.2.6-.4,1.1-.5.1,0,.8-.2,1.1-.2,1.1,0,1.7.4,2.1.8Z"></path><path class="st0" d="M480.3,381.8c.2.4.4.9.4,1.4s-.3.7-.6.7-3.4,0-3.8,0-.3,0-.4.2c0,0,0,.2,0,.2,0,1.4,1,2.4,2.6,2.4s1.4-.3,1.9-.6c.1,0,.3.1.3.2,0,.5-.3.8-.4.9-.9.9-2,1.3-3.1,1.3-2.4,0-3.9-1.7-3.9-4.1s1-3,2-3.6c.5-.3,1.4-.6,2.2-.6s2.2.5,2.7,1.4ZM476.1,382.8c0,0,0,.3,0,.3.2,0,.5,0,1.1,0s1.2,0,1.2-.7-.2-1.1-1-1.1-1.3.8-1.3,1.5Z"></path><path class="st0" d="M482.7,381.4c.4-.2,1.7-.6,2.4-1,.1,0,.2-.1.3-.1.2,0,.4.2.4.2v.7c0,.2,0,.2.2.1.3-.2,1.3-.9,2.4-.9s1.8.6,2.1,1c0,0,.2,0,.3,0,.6-.4.9-.6,1.3-.8.4-.2.8-.3,1.3-.3,1.8,0,2.6,1.3,2.7,3,0,1.2.1,3,.1,3.5s.2.6.6.7c.2,0,.6.2.6.5s-.4.4-.7.4-1.3,0-1.7,0-1.3,0-1.7,0-.6-.3-.6-.4.1-.3.5-.5c.4-.2.5-.3.5-.9,0-.9,0-2.2,0-2.9s0-1.2-.3-1.4c-.2-.2-.5-.4-1.1-.4s-.8.1-.9.2c0,0-.2.2-.2.4,0,1,0,3.6,0,4.1,0,.4.2.7.5.9.4.1.6.3.6.5s-.3.4-.6.4c-.5,0-1.5,0-2,0s-1,0-1.4,0-.7-.2-.7-.4.3-.4.6-.5c.4-.1.4-.2.5-1v-3.2c0-.5,0-.7-.2-.9-.3-.3-.7-.5-1.3-.5s-.6,0-.8.2c0,0-.2.3-.2.4,0,3.3,0,3.6,0,4.1,0,.5,0,.6.4.8.4.2.6.3.6.6s-.2.4-.5.4c-.5,0-1.5,0-2,0s-1.3,0-1.7,0-.7-.2-.7-.4.2-.4.6-.5c.5-.2.7-.4.7-1,0-.7,0-2,0-3.7s0-.2-.3-.5c-.4-.3-.5-.5-.5-.5,0-.3.2-.5.3-.6Z"></path></g></svg>