<svg xmlns="http://www.w3.org/2000/svg" id="Layer_2" viewBox="0 0 202.5 58.9"><defs><style>      .st0 {        fill: #fff;      }      .st1 {        isolation: isolate;      }      .st2 {        fill: #c6894e;      }    </style></defs><g class="st1"><g class="st1"><path class="st2" d="M19.2,10.3c.3,0,.6.7.6,1.2s.3,2.9.3,3.5c0,1.5-.7,2.1-1.3,2.1s-.9-.7-1-1.1c-.9-2.6-3.2-4.9-5.6-4.9s-3.4,1.7-3.4,3.3,1.4,3.3,3.9,4.6c5.4,2.7,8.6,5.1,8.6,9.2s-2.4,5.5-3.9,6.4c-1.7,1-4.5,1.7-6.5,1.7-3.6,0-5.7-.8-6.7-1.2-.3-.1-1-.5-1.2-1-.7-1.5-.9-3.8-.9-4.8s.4-1.8,1.1-1.8,1,.5,1.6,1.6c1.6,2.9,3.9,5,6.6,5s3.5-1.1,3.5-3,0-2.7-4.3-5.1c-5.6-3-7.8-5.3-7.8-9.3s2-5.1,4-6.2c1.6-.9,3.7-1.5,6.1-1.5s4.7.8,6.3,1.2Z"></path></g><g class="st1"><path class="st2" d="M45.3,26.5c0,3.6-1.5,5.6-2.9,6.9-1.5,1.4-4,2.7-7.3,2.7s-5.7-1-7.5-2.8c-1.8-1.8-2.5-4.6-2.5-6.6,0-3.3,1.6-5.5,3.5-7,1.8-1.4,5.1-2.3,6.7-2.3,6.4,0,10,4.7,10,9.1ZM32.8,20.7c-.7,1-1.2,3.3-1.2,5.3,0,4.3,1.5,6.6,2.1,7,.3.3,1.2.9,2,.9s1.3-.4,1.8-1.1c.3-.4,1-2,1-5.4s-1.6-7.7-3.9-7.7-1.5.4-1.9.9Z"></path></g><g class="st1"><path class="st2" d="M49.2,9.1c1.2-.3,3.5-1,4.7-1.4.9-.3,1.3-.4,1.8-.4s.7,1,.7,1.8c0,3.4,0,14.6,0,18.6s0,2.8,0,3.5c0,1.2.3,1.9,1.7,2.5.9.3,1.2.9,1.2,1.3s-.3.7-1.2.7c-1.8,0-3.1-.1-4.2-.1-1.7,0-3.4.2-5.2.2s-1.3-.4-1.3-.8.5-.9,1.3-1.2c1.3-.6,1.6-1.1,1.7-2,.1-.7.2-3.5.2-4.3,0-5.8,0-13.6-.2-14.9,0-.4,0-.9-1.2-1.4-.8-.4-1.1-.6-1.1-.9,0-.7.8-1.1,1.1-1.2Z"></path></g><g class="st1"><path class="st2" d="M62.7,19.2c2.1-.8,5.9-1.9,6.6-1.9s.6.8.6,1.6v7.2c0,5.6,0,5.5.1,5.9.1.8.5,1.3,1.5,1.7.6.2,1.2.6,1.2,1.2s-.5.8-1.5.8-3.3-.1-4.2-.1c-2.2,0-4.2.2-4.8.2s-1.6-.2-1.6-.8.8-1,1.1-1.1c1.9-.7,1.9-.9,2.1-2.4,0-.9.2-4.2.2-6.7s0-1.9,0-2.1c0-.1,0-.6-1.2-1.4-.3-.2-.8-.7-.8-1s.6-.9.7-.9ZM68.9,9.4c.8.8,1,2,1,2.4,0,2.6-2.2,3.4-3.3,3.4s-2.1-.5-2.7-1.5c-.3-.5-.5-1-.5-1.7,0-2,1.4-3.5,3.6-3.5s1.5.3,1.9.8Z"></path><path class="st2" d="M87.9,17.6s.3-.3.3-.5c0-.3,0-3.3,0-4.2,0-1.4-.2-1.8-1.8-2.2-.4-.1-1.1-.5-1.1-.8s.5-1.2,1.2-1.4c1.6-.5,6.1-1.2,7.4-1.2s.6,1,.6,2.5c0,2.7-.2,7.7-.2,11.2,0,8.6.1,8.2.2,9.5,0,1.8.7,2.3,1.1,2.3s1.4,0,1.8-.2c.2,0,.4.5.4.9,0,.7-.7,1.5-1.2,1.5-2.5.3-6.6,1.4-7.2,1.4s-.7-.2-.8-.4c0-.4,0-1.2-.1-1.7,0,0-.3-.2-.4-.2-1.5,1.1-3.8,2-5.2,2-4.3,0-7.9-3.6-7.9-8.6s2.6-6.9,4.7-8.2c1.8-1.2,4.7-1.8,6.2-1.8s1.5,0,2.1,0ZM83,20.7c-1.1,1.1-1.5,2.7-1.5,5.4s1.5,6.6,5,6.6,1.2-.4,1.3-.5c.2-.2.4-.8.4-1.1,0-2.8,0-5.1,0-7.9s-.3-1.5-.4-1.7c-.9-1.3-2.3-1.8-3-1.8s-1.4.5-1.8.9Z"></path></g><g class="st1"><path class="st2" d="M129.3,21.1c-.6.6-1.2.7-2.1,1.2-.2.1,0,.9.1,1.2.9,1.9,2.9,5.1,4.5,7.1,1.5,1.9,2.8,2.6,4.2,3.1.4.2,1,.6,1,.9,0,1.1-1.4,1.5-2.5,1.5-3.4,0-6.7-.3-9.7-4.2-1.5-2-2.7-4.2-3.9-6.1-.7-1.1-1.3-1.3-2-1.3s-.3.5-.3.6c0,3.4,0,4.5.1,6,.1,1.5.6,1.6,2.3,2.4.8.4,1.3.9,1.3,1.2s-.9,1.1-1.6,1.1c-1.1,0-4.4-.2-5.9-.2s-3.3.2-4.9.2-1.6-.5-1.6-.9.6-1,1.4-1.2c1.8-.5,2.2-.9,2.3-3,0-1.5,0-2.3,0-10s-.1-5.5-.2-6.4c0-.9-.5-1.7-2.1-2-.8-.2-1.3-.8-1.3-1.1,0-.7.9-1.1,1.9-1.1,2.2,0,2.9,0,3.5,0,2.8,0,5.2-.3,8.2-.3s5.7.8,6.8,1.6c1.8,1.4,2.7,3.1,2.7,5.4s-.8,3.5-1.9,4.4ZM119.7,12.1c-.2,0-.8.2-1.1.3-.1,0-.3.3-.3.7,0,1.2,0,5.2,0,8.1s.2.7.3.8c.6.3,1.2.4,1.9.4s2.5-1,2.7-1.2c.3-.2,1.2-1.7,1.2-3.7s-1.8-5.4-4.9-5.4Z"></path></g><g class="st1"><path class="st2" d="M157.9,26.5c0,3.6-1.5,5.6-2.9,6.9-1.5,1.4-4,2.7-7.3,2.7s-5.7-1-7.5-2.8-2.5-4.6-2.5-6.6c0-3.3,1.6-5.5,3.5-7,1.8-1.4,5.1-2.3,6.7-2.3,6.4,0,10,4.7,10,9.1ZM145.4,20.7c-.7,1-1.2,3.3-1.2,5.3,0,4.3,1.5,6.6,2.1,7,.3.3,1.2.9,2,.9s1.3-.4,1.8-1.1c.3-.4,1-2,1-5.4s-1.6-7.7-3.9-7.7-1.5.4-1.9.9Z"></path></g><g class="st1"><path class="st2" d="M177,18.8c.4.4.6,1.3.6,1.5,0,1.6-.9,2.9-2,2.9s-1-.5-1.7-1.1c-1.2-1.1-2.5-2.2-3.9-2.2s-1.8.7-2,.9c-.5.5-1.2,1.7-1.2,4.1,0,4.3,2.7,6.9,5.8,6.9s3.2-.6,4.3-1.5c.1-.1.8,0,.8.7s-.6,1.6-1.1,2.2c-1.3,1.8-3.9,3-6.6,3s-4.4-.6-6.1-2.1c-1.1-.9-2.8-3.4-2.8-6.5s2.4-6.8,4.7-8.2c2.2-1.3,4.5-1.8,5.9-1.8,3,0,4.8.9,5.1,1.3Z"></path></g><g class="st1"><path class="st2" d="M195.1,17.9c1.7,0,4.3-.3,5.2-.3s1.5.6,1.5,1c0,.6-.8.9-1.3,1-1.5.5-2.3.8-3.4,1.6-1,.6-2.4,1.8-3.3,2.6-.1,0,0,.4,0,.6,1.8,2.9,4,6.5,4.8,7.4.8.9,1.4,1.7,2.7,2.2,1,.3,1.4.5,1.4,1s-.7,1-1.7,1-4.3-.2-6.5-.2h-1.9c-.9,0-1.2-.5-1.2-.9s.3-.7.9-1c.5-.3.3-.6.1-1-.5-1.1-1.2-2.1-2-3.6-.6-1.1-1.1-1.9-1.4-1.9s-.3,0-.4.1-.2.4-.2.5c0,1.6,0,2.4,0,3.6,0,2,.3,2,1.2,2.3.5.2,1.1.5,1.1.8,0,.5-.8,1.2-1.5,1.2s-2.6-.1-3.7-.1-3.6.1-4.5.1-1.2-.5-1.2-.9.3-.7,1.3-1.2c1.2-.6,1.2-.9,1.3-2,0-.7.2-2.5.2-11.9s0-6.2-.1-6.7c0-.8-.2-.9-1.6-2.1-.3-.3-.6-.5-.6-.9s.6-1.1.9-1.2c.9-.3,4-.7,5.4-1.2.7-.3,1.2-.4,1.5-.4s.5.7.5,1.1c-.1,1.3-.3,7.7-.3,10.2s0,3.6,0,4.9c0,1.5.3,2,.5,2s.6-.3,1.2-.7c1.2-.9,2.2-1.9,3.4-3.3.8-.9.8-1.2-.3-1.5-.9-.3-1.2-.5-1.2-.9,0-.7.9-1.2,1.4-1.2h1.9Z"></path></g></g><path class="st0" d="M3.2,41.4h6.1c3.3,0,5.1,1.8,5.1,4.2s-1.2,3.4-2.6,3.8c1.2.3,3.3,1.6,3.3,4.3s-2.6,5-5.6,5H3.2s0-17.3,0-17.3ZM8.8,48.8c3,0,4.1-1.1,4.1-3.1s-1.2-3.1-3.6-3.1h-4.8v6.1h4.2ZM4.6,57.4h4.8c2.3,0,4.1-1.1,4.1-3.7s-1.4-3.7-4.8-3.7h-4.1s0,7.3,0,7.3Z"></path><path class="st0" d="M20.6,52.8l-2.2,5.9h-1.4l6.3-17.3h1.6l6.6,17.3h-1.5l-2.2-5.9h-7.3,0ZM27.4,51.5c-1.9-5.1-2.9-7.6-3.2-8.7h0c-.4,1.3-1.5,4.4-3.1,8.7h6.3Z"></path><path class="st0" d="M34.7,41.4h6.2c3.2,0,5.3,1.8,5.3,4.8s-2.2,5-5.5,5h-4.6v7.5h-1.4s0-17.3,0-17.3ZM36.1,49.9h4.7c2.8,0,3.9-1.5,3.9-3.6s-1.5-3.6-3.8-3.6h-4.8v7.2h0Z"></path><path class="st0" d="M53.7,42.7h-5.8v-1.3h13v1.3h-5.8v16h-1.4v-16Z"></path><path class="st0" d="M64.9,41.4v17.3h-1.4v-17.3h1.4Z"></path><path class="st0" d="M69.9,54c.5,2.3,2,3.6,4.9,3.6s4.3-1.6,4.3-3.4-.9-3.1-4.6-4.1c-3.7-.9-5.2-2.1-5.2-4.6s1.7-4.4,5.4-4.4,5.4,2.3,5.7,4.4h-1.4c-.4-1.8-1.6-3.2-4.3-3.2s-3.8,1.2-3.8,3.1,1.1,2.6,4.3,3.4c4.9,1.2,5.6,3.2,5.6,5.2s-1.9,4.8-5.9,4.8-5.9-2.5-6.2-4.8h1.4,0Z"></path><path class="st0" d="M87.8,42.7h-5.8v-1.3h13v1.3h-5.8v16h-1.4v-16Z"></path><path class="st0" d="M117,54.1c-.8,2.8-2.8,4.8-6.5,4.8s-7.6-4-7.6-8.8,2.6-8.9,7.6-8.9,5.9,2.1,6.5,5h-1.4c-.8-2.2-2.2-3.7-5.2-3.7-4.3,0-6.1,3.9-6.1,7.6s1.8,7.6,6.2,7.6,4.2-1.5,5.1-3.6h1.4Z"></path><path class="st0" d="M120.7,41.4h1.4v7.5h10.3v-7.5h1.4v17.3h-1.4v-8.5h-10.3v8.5h-1.4s0-17.3,0-17.3Z"></path><path class="st0" d="M140.2,41.4v10.5c0,4.6,2.6,5.7,5,5.7s5-1.2,5-5.7v-10.5h1.4v10.4c0,5.4-2.9,7.1-6.5,7.1s-6.4-1.8-6.4-6.9v-10.6h1.4Z"></path><path class="st0" d="M157.8,50.7v8h-1.4v-17.3h6.2c3.4,0,5.2,1.8,5.2,4.5s-1.3,3.6-3.2,4c1.8.4,2.9,1.6,2.9,4.5v.7c0,1.2-.1,2.8.2,3.5h-1.4c-.3-.7-.2-2.1-.2-3.6v-.4c0-2.8-.8-4-4.1-4h-4.2ZM157.8,49.4h4.1c3,0,4.4-1.1,4.4-3.4s-1.4-3.3-4-3.3h-4.5v6.7h0Z"></path><path class="st0" d="M185,54.1c-.8,2.8-2.8,4.8-6.5,4.8s-7.6-4-7.6-8.8,2.6-8.9,7.6-8.9,5.9,2.1,6.5,5h-1.4c-.8-2.2-2.2-3.7-5.2-3.7-4.3,0-6.1,3.9-6.1,7.6s1.8,7.6,6.1,7.6,4.2-1.5,5.1-3.6h1.4Z"></path><path class="st0" d="M188.7,41.4h1.4v7.5h10.3v-7.5h1.4v17.3h-1.4v-8.5h-10.3v8.5h-1.4s0-17.3,0-17.3Z"></path></svg>